<?xml version="1.0" encoding="UTF-8" standalone="no"?>
<!DOCTYPE svg PUBLIC "-//W3C//DTD SVG 1.1//EN"
 "http://www.w3.org/Graphics/SVG/1.1/DTD/svg11.dtd">
<!-- Generated by graphviz version 2.43.0 (0)
 -->
<!-- Title: bertini::endgame::PowerSeriesEndgame&lt; PrecT &gt; Pages: 1 -->
<svg width="338pt" height="181pt"
 viewBox="0.00 0.00 338.00 181.00" xmlns="http://www.w3.org/2000/svg" xmlns:xlink="http://www.w3.org/1999/xlink">

<svg id="main" version="1.1" xmlns="http://www.w3.org/2000/svg" xmlns:xlink="http://www.w3.org/1999/xlink" xml:space="preserve" onload="init(evt)">
<style type="text/css"><![CDATA[
.node, .edge {opacity: 0.7;}
.node.selected, .edge.selected {opacity: 1;}
.edge:hover path { stroke: red; }
.edge:hover polygon { stroke: red; fill: red; }
]]></style>
<script type="application/ecmascript" xlink:href="svg.min.js"/>
<svg id="graph" class="graph">
<g id="graph0" class="graph" transform="scale(1 1) rotate(0) translate(4 177)">
<title>bertini::endgame::PowerSeriesEndgame&lt; PrecT &gt;</title>
<!-- Node1 -->
<g id="Node000001" class="node">
<title>Node1</title>
<g id="a_Node000001"><a xlink:title="class used to finish tracking paths during Homotopy Continuation">
<polygon fill="#999999" stroke="#666666" points="263,-30 97,-30 97,0 263,0 263,-30"/>
<text text-anchor="start" x="105" y="-18" font-family="Helvetica,sans-Serif" font-size="10.00">bertini::endgame::PowerSeries</text>
<text text-anchor="middle" x="180" y="-7" font-family="Helvetica,sans-Serif" font-size="10.00">Endgame&lt; PrecT &gt;</text>
</a>
</g>
</g>
<!-- Node2 -->
<g id="Node000002" class="node">
<title>Node2</title>
<g id="a_Node000002"><a xlink:href="classbertini_1_1endgame_1_1EndgameBase.html" target="_top" xlink:title=" ">
<polygon fill="white" stroke="#666666" points="259,-107 101,-107 101,-66 259,-66 259,-107"/>
<text text-anchor="start" x="109" y="-95" font-family="Helvetica,sans-Serif" font-size="10.00">bertini::endgame::Endgame</text>
<text text-anchor="start" x="109" y="-84" font-family="Helvetica,sans-Serif" font-size="10.00">Base&lt; PowerSeriesEndgame</text>
<text text-anchor="middle" x="180" y="-73" font-family="Helvetica,sans-Serif" font-size="10.00">&lt; PrecT &gt;, PrecT &gt;</text>
</a>
</g>
</g>
<!-- Node2&#45;&gt;Node1 -->
<g id="edge1_Node000001_Node000002" class="edge">
<title>Node2&#45;&gt;Node1</title>
<g id="a_edge1_Node000001_Node000002"><a xlink:title=" ">
<path fill="none" stroke="#63b8ff" d="M180,-55.66C180,-46.76 180,-37.42 180,-30.04"/>
<polygon fill="#63b8ff" stroke="#63b8ff" points="176.5,-55.77 180,-65.77 183.5,-55.77 176.5,-55.77"/>
</a>
</g>
</g>
<!-- Node3 -->
<g id="Node000003" class="node">
<title>Node3</title>
<g id="a_Node000003"><a xlink:href="structbertini_1_1detail_1_1Configured.html" target="_top" xlink:title=" ">
<polygon fill="white" stroke="#666666" points="140,-173 0,-173 0,-143 140,-143 140,-173"/>
<text text-anchor="start" x="8" y="-161" font-family="Helvetica,sans-Serif" font-size="10.00">bertini::detail::Configured</text>
<text text-anchor="middle" x="70" y="-150" font-family="Helvetica,sans-Serif" font-size="10.00">&lt; Ts &gt;</text>
</a>
</g>
</g>
<!-- Node3&#45;&gt;Node2 -->
<g id="edge2_Node000002_Node000003" class="edge">
<title>Node3&#45;&gt;Node2</title>
<g id="a_edge2_Node000002_Node000003"><a xlink:title=" ">
<path fill="none" stroke="#63b8ff" d="M100.74,-137.58C115.81,-128.06 133.92,-116.62 149.02,-107.07"/>
<polygon fill="#63b8ff" stroke="#63b8ff" points="98.84,-134.64 92.26,-142.94 102.58,-140.55 98.84,-134.64"/>
</a>
</g>
</g>
<!-- Node4 -->
<g id="Node000004" class="node">
<title>Node4</title>
<g id="a_Node000004"><a xlink:title=" ">
<polygon fill="white" stroke="#666666" points="202,-167.5 158,-167.5 158,-148.5 202,-148.5 202,-167.5"/>
<text text-anchor="middle" x="180" y="-155.5" font-family="Helvetica,sans-Serif" font-size="10.00">PrecT</text>
</a>
</g>
</g>
<!-- Node4&#45;&gt;Node2 -->
<g id="edge3_Node000002_Node000004" class="edge">
<title>Node4&#45;&gt;Node2</title>
<g id="a_edge3_Node000002_Node000004"><a xlink:title=" ">
<path fill="none" stroke="#63b8ff" d="M180,-138.38C180,-128.74 180,-116.96 180,-107.17"/>
<polygon fill="#63b8ff" stroke="#63b8ff" points="176.5,-138.48 180,-148.48 183.5,-138.48 176.5,-138.48"/>
</a>
</g>
</g>
<!-- Node5 -->
<g id="Node000005" class="node">
<title>Node5</title>
<g id="a_Node000005"><a xlink:href="classbertini_1_1Observable.html" target="_top" xlink:title="An abstract observable type, maintaining a list of observers, who can be notified in case of Events.">
<polygon fill="white" stroke="#666666" points="330,-167.5 220,-167.5 220,-148.5 330,-148.5 330,-167.5"/>
<text text-anchor="middle" x="275" y="-155.5" font-family="Helvetica,sans-Serif" font-size="10.00">bertini::Observable</text>
</a>
</g>
</g>
<!-- Node5&#45;&gt;Node2 -->
<g id="edge4_Node000002_Node000005" class="edge">
<title>Node5&#45;&gt;Node2</title>
<g id="a_edge4_Node000002_Node000005"><a xlink:title=" ">
<path fill="none" stroke="#63b8ff" d="M254.95,-142.33C240.97,-132.11 222.17,-118.35 206.89,-107.17"/>
<polygon fill="#63b8ff" stroke="#63b8ff" points="253.21,-145.4 263.35,-148.48 257.35,-139.75 253.21,-145.4"/>
</a>
</g>
</g>
</g>
</svg>
</svg>

<style type='text/css'>
<![CDATA[
[data-mouse-over-selected='false'] { opacity: 0.7; }
[data-mouse-over-selected='true']  { opacity: 1.0; }
]]>
</style>
<script type="application/ecmascript"><![CDATA[
document.addEventListener('DOMContentLoaded', (event) => {
  highlightEdges();
  highlightAdjacentNodes();
});
]]></script>
</svg>
