<?xml version="1.0" encoding="UTF-8" standalone="no"?>
<!DOCTYPE svg PUBLIC "-//W3C//DTD SVG 1.1//EN"
 "http://www.w3.org/Graphics/SVG/1.1/DTD/svg11.dtd">
<!-- Generated by graphviz version 14.1.2 (0)
 -->
<!-- Title: core/include/bertini2/blackbox/algorithm_builder.hpp Pages: 1 -->
<!--zoomable 351 -->

<svg id="main" version="1.1" xmlns="http://www.w3.org/2000/svg" xmlns:xlink="http://www.w3.org/1999/xlink" xml:space="preserve" onload="init(evt)">

<style type="text/css"><![CDATA[
.node, .edge {opacity: 0.7;}
.node.selected, .edge.selected {opacity: 1;}
.edge:hover path { stroke: red; }
.edge:hover polygon { stroke: red; fill: red; }
]]></style>

<defs>
  <circle id="rim" cx="0" cy="0" r="7"/>
  <circle id="rim2" cx="0" cy="0" r="3.5"/>
  <g id="zoomPlus">
    <use xlink:href="#rim" fill="#404040"><set attributeName="fill" to="#808080" begin="zoomplus.mouseover" end="zoomplus.mouseout"/></use>
    <path d="M-4,0h8M0,-4v8" fill="none" stroke="white" stroke-width="1.5" pointer-events="none"/>
  </g>
  <g id="zoomMin">
    <use xlink:href="#rim" fill="#404040"><set attributeName="fill" to="#808080" begin="zoomminus.mouseover" end="zoomminus.mouseout"/></use>
    <path d="M-4,0h8" fill="none" stroke="white" stroke-width="1.5" pointer-events="none"/>
  </g>
  <g id="arrowUp" transform="translate(30 24)">
    <use xlink:href="#rim"/>
    <path pointer-events="none" fill="none" stroke="white" stroke-width="1.5" d="M0,-3.0v7 M-2.5,-0.5L0,-3.0L2.5,-0.5"/>
  </g>
  <g id="arrowRight" transform="rotate(90) translate(36 -43)">
    <use xlink:href="#rim"/>
    <path pointer-events="none" fill="none" stroke="white" stroke-width="1.5" d="M0,-3.0v7 M-2.5,-0.5L0,-3.0L2.5,-0.5"/>
  </g>
  <g id="arrowDown" transform="rotate(180) translate(-30 -48)">
    <use xlink:href="#rim"/>
    <path pointer-events="none" fill="none" stroke="white" stroke-width="1.5" d="M0,-3.0v7 M-2.5,-0.5L0,-3.0L2.5,-0.5"/>
  </g>
  <g id="arrowLeft" transform="rotate(270) translate(-36 17)">
    <use xlink:href="#rim"/>
    <path pointer-events="none" fill="none" stroke="white" stroke-width="1.5" d="M0,-3.0v7 M-2.5,-0.5L0,-3.0L2.5,-0.5"/>
  </g>
  <g id="resetDef">
    <use xlink:href="#rim2" fill="#404040"><set attributeName="fill" to="#808080" begin="reset.mouseover" end="reset.mouseout"/></use>
  </g>
</defs>
<script type="application/ecmascript">
var viewWidth = 1033;
var viewHeight = 351;
var sectionId = 'dynsection-0';
</script>
<script type="application/ecmascript" xlink:href="svg.min.js"/>
<svg id="graph" class="graph">
<g id="viewport">
<title>core/include/bertini2/blackbox/algorithm_builder.hpp</title>
<!-- Node1 -->
<g id="Node000001" class="node">
<title>Node1</title>
<g id="a_Node000001"><a xlink:title="A type which determines which algorithms etc, to run, and sets them up.">
<polygon fill="#999999" stroke="#666666" points="439.75,-342.75 267,-342.75 267,-309.25 439.75,-309.25 439.75,-342.75"/>
<text xml:space="preserve" text-anchor="start" x="275" y="-329.25" font-family="Helvetica,sans-Serif" font-size="10.00">core/include/bertini2</text>
<text xml:space="preserve" text-anchor="middle" x="353.38" y="-316.5" font-family="Helvetica,sans-Serif" font-size="10.00">/blackbox/algorithm_builder.hpp</text>
</a>
</g>
</g>
<!-- Node2 -->
<g id="Node000002" class="node">
<title>Node2</title>
<g id="a_Node000002"><a xlink:href="file__utilities_8hpp.html" target="_top" xlink:title="Provides the file_utilities screens for bertini2.">
<polygon fill="white" stroke="#666666" points="340.62,-266.88 194.12,-266.88 194.12,-246.12 340.62,-246.12 340.62,-266.88"/>
<text xml:space="preserve" text-anchor="middle" x="267.38" y="-253.38" font-family="Helvetica,sans-Serif" font-size="10.00">bertini2/io/file_utilities.hpp</text>
</a>
</g>
</g>
<!-- Node1&#45;&gt;Node2 -->
<g id="edge1_Node000001_Node000002" class="edge">
<title>Node1&#45;&gt;Node2</title>
<g id="a_edge1_Node000001_Node000002"><a xlink:title=" ">
<path fill="none" stroke="#63b8ff" d="M332.99,-309C319.72,-298.59 302.44,-285.02 288.94,-274.42"/>
<polygon fill="#63b8ff" stroke="#63b8ff" points="291.11,-271.68 281.08,-268.26 286.78,-277.18 291.11,-271.68"/>
</a>
</g>
</g>
<!-- Node7 -->
<g id="Node000007" class="node">
<title>Node7</title>
<g id="a_Node000007"><a xlink:href="algorithm__base_8hpp.html" target="_top" xlink:title="provides a common base type for algorithms to inherit from, for the abstraction layer above for calli...">
<polygon fill="white" stroke="#666666" points="534.12,-273.25 372.62,-273.25 372.62,-239.75 534.12,-239.75 534.12,-273.25"/>
<text xml:space="preserve" text-anchor="start" x="380.62" y="-259.75" font-family="Helvetica,sans-Serif" font-size="10.00">bertini2/nag_algorithms</text>
<text xml:space="preserve" text-anchor="middle" x="453.38" y="-247" font-family="Helvetica,sans-Serif" font-size="10.00">/common/algorithm_base.hpp</text>
</a>
</g>
</g>
<!-- Node1&#45;&gt;Node7 -->
<g id="edge6_Node000001_Node000007" class="edge">
<title>Node1&#45;&gt;Node7</title>
<g id="a_edge6_Node000001_Node000007"><a xlink:title=" ">
<path fill="none" stroke="#63b8ff" d="M377.33,-308.83C390.19,-300.15 406.25,-289.31 420.28,-279.84"/>
<polygon fill="#63b8ff" stroke="#63b8ff" points="422.03,-282.88 428.36,-274.38 418.12,-277.08 422.03,-282.88"/>
</a>
</g>
</g>
<!-- Node3 -->
<g id="Node000003" class="node">
<title>Node3</title>
<g id="a_Node000003"><a xlink:title=" ">
<polygon fill="#e0e0e0" stroke="#999999" points="222.12,-203.75 162.62,-203.75 162.62,-183 222.12,-183 222.12,-203.75"/>
<text xml:space="preserve" text-anchor="middle" x="192.38" y="-190.25" font-family="Helvetica,sans-Serif" font-size="10.00">iostream</text>
</a>
</g>
</g>
<!-- Node2&#45;&gt;Node3 -->
<g id="edge2_Node000002_Node000003" class="edge">
<title>Node2&#45;&gt;Node3</title>
<g id="a_edge2_Node000002_Node000003"><a xlink:title=" ">
<path fill="none" stroke="#63b8ff" d="M255.32,-245.68C243.89,-236.36 226.47,-222.16 212.85,-211.06"/>
<polygon fill="#63b8ff" stroke="#63b8ff" points="215.28,-208.53 205.32,-204.93 210.86,-213.96 215.28,-208.53"/>
</a>
</g>
</g>
<!-- Node4 -->
<g id="Node000004" class="node">
<title>Node4</title>
<g id="a_Node000004"><a xlink:title=" ">
<polygon fill="#e0e0e0" stroke="#999999" points="294.5,-203.75 240.25,-203.75 240.25,-183 294.5,-183 294.5,-203.75"/>
<text xml:space="preserve" text-anchor="middle" x="267.38" y="-190.25" font-family="Helvetica,sans-Serif" font-size="10.00">fstream</text>
</a>
</g>
</g>
<!-- Node2&#45;&gt;Node4 -->
<g id="edge3_Node000002_Node000004" class="edge">
<title>Node2&#45;&gt;Node4</title>
<g id="a_edge3_Node000002_Node000004"><a xlink:title=" ">
<path fill="none" stroke="#63b8ff" d="M267.38,-245.68C267.38,-237.52 267.38,-225.63 267.38,-215.35"/>
<polygon fill="#63b8ff" stroke="#63b8ff" points="270.88,-215.48 267.38,-205.48 263.88,-215.48 270.88,-215.48"/>
</a>
</g>
</g>
<!-- Node5 -->
<g id="Node000005" class="node">
<title>Node5</title>
<g id="a_Node000005"><a xlink:title=" ">
<polygon fill="#e0e0e0" stroke="#999999" points="368.25,-203.75 312.5,-203.75 312.5,-183 368.25,-183 368.25,-203.75"/>
<text xml:space="preserve" text-anchor="middle" x="340.38" y="-190.25" font-family="Helvetica,sans-Serif" font-size="10.00">sstream</text>
</a>
</g>
</g>
<!-- Node2&#45;&gt;Node5 -->
<g id="edge4_Node000002_Node000005" class="edge">
<title>Node2&#45;&gt;Node5</title>
<g id="a_edge4_Node000002_Node000005"><a xlink:title=" ">
<path fill="none" stroke="#63b8ff" d="M279.1,-245.68C290.24,-236.36 307.19,-222.16 320.45,-211.06"/>
<polygon fill="#63b8ff" stroke="#63b8ff" points="322.34,-214.05 327.76,-204.94 317.84,-208.68 322.34,-214.05"/>
</a>
</g>
</g>
<!-- Node6 -->
<g id="Node000006" class="node">
<title>Node6</title>
<g id="a_Node000006"><a xlink:title=" ">
<polygon fill="#e0e0e0" stroke="#999999" points="144.38,-203.75 26.38,-203.75 26.38,-183 144.38,-183 144.38,-203.75"/>
<text xml:space="preserve" text-anchor="middle" x="85.38" y="-190.25" font-family="Helvetica,sans-Serif" font-size="10.00">boost/filesystem.hpp</text>
</a>
</g>
</g>
<!-- Node2&#45;&gt;Node6 -->
<g id="edge5_Node000002_Node000006" class="edge">
<title>Node2&#45;&gt;Node6</title>
<g id="a_edge5_Node000002_Node000006"><a xlink:title=" ">
<path fill="none" stroke="#63b8ff" d="M238.13,-245.68C207.49,-235.39 159.15,-219.15 125.07,-207.71"/>
<polygon fill="#63b8ff" stroke="#63b8ff" points="126.57,-204.52 115.98,-204.65 124.34,-211.15 126.57,-204.52"/>
</a>
</g>
</g>
<!-- Node8 -->
<g id="Node000008" class="node">
<title>Node8</title>
<g id="a_Node000008"><a xlink:href="observable_8hpp.html" target="_top" xlink:title="Contains the observable base types.">
<polygon fill="white" stroke="#666666" points="548.5,-203.75 386.25,-203.75 386.25,-183 548.5,-183 548.5,-203.75"/>
<text xml:space="preserve" text-anchor="middle" x="467.38" y="-190.25" font-family="Helvetica,sans-Serif" font-size="10.00">bertini2/detail/observable.hpp</text>
</a>
</g>
</g>
<!-- Node7&#45;&gt;Node8 -->
<g id="edge7_Node000007_Node000008" class="edge">
<title>Node7&#45;&gt;Node8</title>
<g id="a_edge7_Node000007_Node000008"><a xlink:title=" ">
<path fill="none" stroke="#63b8ff" d="M457.05,-239.44C458.75,-232.02 460.79,-223.11 462.61,-215.18"/>
<polygon fill="#63b8ff" stroke="#63b8ff" points="465.96,-216.22 464.78,-205.69 459.14,-214.66 465.96,-216.22"/>
</a>
</g>
</g>
<!-- Node9 -->
<g id="Node000009" class="node">
<title>Node9</title>
<g id="a_Node000009"><a xlink:href="observer_8hpp.html" target="_top" xlink:title="Contains the observer base types.">
<polygon fill="white" stroke="#666666" points="340.5,-147 190.25,-147 190.25,-126.25 340.5,-126.25 340.5,-147"/>
<text xml:space="preserve" text-anchor="middle" x="265.38" y="-133.5" font-family="Helvetica,sans-Serif" font-size="10.00">bertini2/detail/observer.hpp</text>
</a>
</g>
</g>
<!-- Node8&#45;&gt;Node9 -->
<g id="edge8_Node000008_Node000009" class="edge">
<title>Node8&#45;&gt;Node9</title>
<g id="a_edge8_Node000008_Node000009"><a xlink:title=" ">
<path fill="none" stroke="#63b8ff" d="M431.26,-182.59C398.04,-173.58 348.59,-160.18 312.32,-150.35"/>
<polygon fill="#63b8ff" stroke="#63b8ff" points="313.54,-147.05 302.98,-147.82 311.71,-153.81 313.54,-147.05"/>
</a>
</g>
</g>
<!-- Node11 -->
<g id="Node000011" class="node">
<title>Node11</title>
<g id="a_Node000011"><a xlink:title=" ">
<polygon fill="#e0e0e0" stroke="#999999" points="64.75,-83.88 0,-83.88 0,-63.12 64.75,-63.12 64.75,-83.88"/>
<text xml:space="preserve" text-anchor="middle" x="32.38" y="-70.38" font-family="Helvetica,sans-Serif" font-size="10.00">typeindex</text>
</a>
</g>
</g>
<!-- Node8&#45;&gt;Node11 -->
<g id="edge23_Node000008_Node000011" class="edge">
<title>Node8&#45;&gt;Node11</title>
<g id="a_edge23_Node000008_Node000011"><a xlink:title=" ">
<path fill="none" stroke="#63b8ff" d="M385.88,-183.12C296,-172.59 161,-155.74 138.38,-147 104.8,-134.04 71.42,-108.59 51.34,-91.56"/>
<polygon fill="#63b8ff" stroke="#63b8ff" points="53.84,-89.1 43.99,-85.18 49.24,-94.38 53.84,-89.1"/>
</a>
</g>
</g>
<!-- Node12 -->
<g id="Node000012" class="node">
<title>Node12</title>
<g id="a_Node000012"><a xlink:title=" ">
<polygon fill="#e0e0e0" stroke="#999999" points="127.62,-83.88 83.12,-83.88 83.12,-63.12 127.62,-63.12 127.62,-83.88"/>
<text xml:space="preserve" text-anchor="middle" x="105.38" y="-70.38" font-family="Helvetica,sans-Serif" font-size="10.00">utility</text>
</a>
</g>
</g>
<!-- Node8&#45;&gt;Node12 -->
<g id="edge26_Node000008_Node000012" class="edge">
<title>Node8&#45;&gt;Node12</title>
<g id="a_edge26_Node000008_Node000012"><a xlink:title=" ">
<path fill="none" stroke="#63b8ff" d="M386.02,-183.11C303.49,-173.23 185.28,-157.59 166.38,-147 144.15,-134.55 126.49,-110.64 116.01,-93.68"/>
<polygon fill="#63b8ff" stroke="#63b8ff" points="119.28,-92.34 111.2,-85.49 113.25,-95.89 119.28,-92.34"/>
</a>
</g>
</g>
<!-- Node13 -->
<g id="Node000013" class="node">
<title>Node13</title>
<g id="a_Node000013"><a xlink:title=" ">
<polygon fill="#e0e0e0" stroke="#999999" points="192.75,-83.88 146,-83.88 146,-63.12 192.75,-63.12 192.75,-83.88"/>
<text xml:space="preserve" text-anchor="middle" x="169.38" y="-70.38" font-family="Helvetica,sans-Serif" font-size="10.00">vector</text>
</a>
</g>
</g>
<!-- Node8&#45;&gt;Node13 -->
<g id="edge27_Node000008_Node000013" class="edge">
<title>Node8&#45;&gt;Node13</title>
<g id="a_edge27_Node000008_Node000013"><a xlink:title=" ">
<path fill="none" stroke="#63b8ff" d="M391.14,-182.52C308.98,-171.55 188.84,-154.42 181.38,-147 167.96,-133.67 166.06,-111.48 166.83,-95.15"/>
<polygon fill="#63b8ff" stroke="#63b8ff" points="170.29,-95.82 167.67,-85.55 163.31,-95.21 170.29,-95.82"/>
</a>
</g>
</g>
<!-- Node17 -->
<g id="Node000017" class="node">
<title>Node17</title>
<g id="a_Node000017"><a xlink:href="detail_2events_8hpp.html" target="_top" xlink:title="Contains the detail/events base types.">
<polygon fill="white" stroke="#666666" points="825,-83.88 683.75,-83.88 683.75,-63.12 825,-63.12 825,-83.88"/>
<text xml:space="preserve" text-anchor="middle" x="754.38" y="-70.38" font-family="Helvetica,sans-Serif" font-size="10.00">bertini2/detail/events.hpp</text>
</a>
</g>
</g>
<!-- Node8&#45;&gt;Node17 -->
<g id="edge18_Node000008_Node000017" class="edge">
<title>Node8&#45;&gt;Node17</title>
<g id="a_edge18_Node000008_Node000017"><a xlink:title=" ">
<path fill="none" stroke="#63b8ff" d="M438.96,-182.57C408.54,-170.59 367.23,-149.08 387.38,-126.25 429.9,-78.05 610.91,-100.46 674.38,-90.25 681.35,-89.13 688.64,-87.85 695.86,-86.51"/>
<polygon fill="#63b8ff" stroke="#63b8ff" points="696.44,-89.96 705.61,-84.66 695.13,-83.08 696.44,-89.96"/>
</a>
</g>
</g>
<!-- Node19 -->
<g id="Node000019" class="node">
<title>Node19</title>
<g id="a_Node000019"><a xlink:title=" ">
<polygon fill="#e0e0e0" stroke="#999999" points="460,-147 396.75,-147 396.75,-126.25 460,-126.25 460,-147"/>
<text xml:space="preserve" text-anchor="middle" x="428.38" y="-133.5" font-family="Helvetica,sans-Serif" font-size="10.00">algorithm</text>
</a>
</g>
</g>
<!-- Node8&#45;&gt;Node19 -->
<g id="edge19_Node000008_Node000019" class="edge">
<title>Node8&#45;&gt;Node19</title>
<g id="a_edge19_Node000008_Node000019"><a xlink:title=" ">
<path fill="none" stroke="#63b8ff" d="M460.4,-182.59C455.24,-175.35 448.06,-165.26 441.8,-156.47"/>
<polygon fill="#63b8ff" stroke="#63b8ff" points="444.82,-154.68 436.17,-148.56 439.12,-158.74 444.82,-154.68"/>
</a>
</g>
</g>
<!-- Node20 -->
<g id="Node000020" class="node">
<title>Node20</title>
<g id="a_Node000020"><a xlink:title=" ">
<polygon fill="#e0e0e0" stroke="#999999" points="535,-147 477.75,-147 477.75,-126.25 535,-126.25 535,-147"/>
<text xml:space="preserve" text-anchor="middle" x="506.38" y="-133.5" font-family="Helvetica,sans-Serif" font-size="10.00">memory</text>
</a>
</g>
</g>
<!-- Node8&#45;&gt;Node20 -->
<g id="edge20_Node000008_Node000020" class="edge">
<title>Node8&#45;&gt;Node20</title>
<g id="a_edge20_Node000008_Node000020"><a xlink:title=" ">
<path fill="none" stroke="#63b8ff" d="M474.35,-182.59C479.51,-175.35 486.69,-165.26 492.95,-156.47"/>
<polygon fill="#63b8ff" stroke="#63b8ff" points="495.63,-158.74 498.58,-148.56 489.93,-154.68 495.63,-158.74"/>
</a>
</g>
</g>
<!-- Node21 -->
<g id="Node000021" class="node">
<title>Node21</title>
<g id="a_Node000021"><a xlink:title=" ">
<polygon fill="#e0e0e0" stroke="#999999" points="600.12,-147 552.62,-147 552.62,-126.25 600.12,-126.25 600.12,-147"/>
<text xml:space="preserve" text-anchor="middle" x="576.38" y="-133.5" font-family="Helvetica,sans-Serif" font-size="10.00">mutex</text>
</a>
</g>
</g>
<!-- Node8&#45;&gt;Node21 -->
<g id="edge21_Node000008_Node000021" class="edge">
<title>Node8&#45;&gt;Node21</title>
<g id="a_edge21_Node000008_Node000021"><a xlink:title=" ">
<path fill="none" stroke="#63b8ff" d="M486.86,-182.59C503.52,-174.22 527.76,-162.04 546.81,-152.47"/>
<polygon fill="#63b8ff" stroke="#63b8ff" points="548.34,-155.62 555.7,-148.01 545.2,-149.37 548.34,-155.62"/>
</a>
</g>
</g>
<!-- Node22 -->
<g id="Node000022" class="node">
<title>Node22</title>
<g id="a_Node000022"><a xlink:title=" ">
<polygon fill="#e0e0e0" stroke="#999999" points="682.38,-147 618.38,-147 618.38,-126.25 682.38,-126.25 682.38,-147"/>
<text xml:space="preserve" text-anchor="middle" x="650.38" y="-133.5" font-family="Helvetica,sans-Serif" font-size="10.00">stdexcept</text>
</a>
</g>
</g>
<!-- Node8&#45;&gt;Node22 -->
<g id="edge22_Node000008_Node000022" class="edge">
<title>Node8&#45;&gt;Node22</title>
<g id="a_edge22_Node000008_Node000022"><a xlink:title=" ">
<path fill="none" stroke="#63b8ff" d="M500.09,-182.59C530.02,-173.63 574.49,-160.33 607.3,-150.51"/>
<polygon fill="#63b8ff" stroke="#63b8ff" points="607.91,-153.98 616.49,-147.76 605.91,-147.28 607.91,-153.98"/>
</a>
</g>
</g>
<!-- Node23 -->
<g id="Node000023" class="node">
<title>Node23</title>
<g id="a_Node000023"><a xlink:title=" ">
<polygon fill="#e0e0e0" stroke="#999999" points="756.62,-147 700.12,-147 700.12,-126.25 756.62,-126.25 756.62,-147"/>
<text xml:space="preserve" text-anchor="middle" x="728.38" y="-133.5" font-family="Helvetica,sans-Serif" font-size="10.00">typeinfo</text>
</a>
</g>
</g>
<!-- Node8&#45;&gt;Node23 -->
<g id="edge24_Node000008_Node000023" class="edge">
<title>Node8&#45;&gt;Node23</title>
<g id="a_edge24_Node000008_Node000023"><a xlink:title=" ">
<path fill="none" stroke="#63b8ff" d="M519.58,-182.54C562.59,-174.27 625.43,-161.81 688.74,-147.53"/>
<polygon fill="#63b8ff" stroke="#63b8ff" points="689.27,-150.99 698.25,-145.37 687.72,-144.17 689.27,-150.99"/>
</a>
</g>
</g>
<!-- Node24 -->
<g id="Node000024" class="node">
<title>Node24</title>
<g id="a_Node000024"><a xlink:title=" ">
<polygon fill="#e0e0e0" stroke="#999999" points="867.62,-147 775.12,-147 775.12,-126.25 867.62,-126.25 867.62,-147"/>
<text xml:space="preserve" text-anchor="middle" x="821.38" y="-133.5" font-family="Helvetica,sans-Serif" font-size="10.00">unordered_map</text>
</a>
</g>
</g>
<!-- Node8&#45;&gt;Node24 -->
<g id="edge25_Node000008_Node000024" class="edge">
<title>Node8&#45;&gt;Node24</title>
<g id="a_edge25_Node000008_Node000024"><a xlink:title=" ">
<path fill="none" stroke="#63b8ff" d="M533.99,-182.52C591.88,-173.89 678.29,-160.85 763.44,-147.29"/>
<polygon fill="#63b8ff" stroke="#63b8ff" points="763.81,-150.77 773.14,-145.74 762.71,-143.86 763.81,-150.77"/>
</a>
</g>
</g>
<!-- Node25 -->
<g id="Node000025" class="node">
<title>Node25</title>
<g id="a_Node000025"><a xlink:title=" ">
<polygon fill="#e0e0e0" stroke="#999999" points="1025.25,-147 885.5,-147 885.5,-126.25 1025.25,-126.25 1025.25,-147"/>
<text xml:space="preserve" text-anchor="middle" x="955.38" y="-133.5" font-family="Helvetica,sans-Serif" font-size="10.00">boost/core/demangle.hpp</text>
</a>
</g>
</g>
<!-- Node8&#45;&gt;Node25 -->
<g id="edge28_Node000008_Node000025" class="edge">
<title>Node8&#45;&gt;Node25</title>
<g id="a_edge28_Node000008_Node000025"><a xlink:title=" ">
<path fill="none" stroke="#63b8ff" d="M548.88,-183.52C628.94,-174.78 754.9,-160.91 874.03,-147.26"/>
<polygon fill="#63b8ff" stroke="#63b8ff" points="874.13,-150.77 883.66,-146.16 873.33,-143.82 874.13,-150.77"/>
</a>
</g>
</g>
<!-- Node10 -->
<g id="Node000010" class="node">
<title>Node10</title>
<g id="a_Node000010"><a xlink:title=" ">
<polygon fill="#e0e0e0" stroke="#999999" points="251.75,-83.88 211,-83.88 211,-63.12 251.75,-63.12 251.75,-83.88"/>
<text xml:space="preserve" text-anchor="middle" x="231.38" y="-70.38" font-family="Helvetica,sans-Serif" font-size="10.00">tuple</text>
</a>
</g>
</g>
<!-- Node9&#45;&gt;Node10 -->
<g id="edge9_Node000009_Node000010" class="edge">
<title>Node9&#45;&gt;Node10</title>
<g id="a_edge9_Node000009_Node000010"><a xlink:title=" ">
<path fill="none" stroke="#63b8ff" d="M259.91,-125.8C255.18,-117.29 248.18,-104.7 242.29,-94.13"/>
<polygon fill="#63b8ff" stroke="#63b8ff" points="245.37,-92.46 237.45,-85.42 239.25,-95.86 245.37,-92.46"/>
</a>
</g>
</g>
<!-- Node9&#45;&gt;Node11 -->
<g id="edge10_Node000009_Node000011" class="edge">
<title>Node9&#45;&gt;Node11</title>
<g id="a_edge10_Node000009_Node000011"><a xlink:title=" ">
<path fill="none" stroke="#63b8ff" d="M216.65,-125.82C177.78,-117.57 122.13,-104.81 74.38,-90.25 72.25,-89.6 70.08,-88.9 67.9,-88.17"/>
<polygon fill="#63b8ff" stroke="#63b8ff" points="69.09,-84.88 58.5,-84.85 66.76,-91.48 69.09,-84.88"/>
</a>
</g>
</g>
<!-- Node9&#45;&gt;Node12 -->
<g id="edge11_Node000009_Node000012" class="edge">
<title>Node9&#45;&gt;Node12</title>
<g id="a_edge11_Node000009_Node000012"><a xlink:title=" ">
<path fill="none" stroke="#63b8ff" d="M234.47,-125.8C208.31,-117.21 169.96,-103.99 137.38,-90.25 136.45,-89.86 135.52,-89.46 134.58,-89.04"/>
<polygon fill="#63b8ff" stroke="#63b8ff" points="136.41,-86.04 125.87,-85 133.47,-92.39 136.41,-86.04"/>
</a>
</g>
</g>
<!-- Node9&#45;&gt;Node13 -->
<g id="edge12_Node000009_Node000013" class="edge">
<title>Node9&#45;&gt;Node13</title>
<g id="a_edge12_Node000009_Node000013"><a xlink:title=" ">
<path fill="none" stroke="#63b8ff" d="M249.95,-125.8C234.98,-116.27 211.99,-101.63 194.4,-90.43"/>
<polygon fill="#63b8ff" stroke="#63b8ff" points="196.35,-87.53 186.04,-85.11 192.59,-93.43 196.35,-87.53"/>
</a>
</g>
</g>
<!-- Node14 -->
<g id="Node000014" class="node">
<title>Node14</title>
<g id="a_Node000014"><a xlink:title=" ">
<polygon fill="#e0e0e0" stroke="#999999" points="388.75,-90.25 270,-90.25 270,-56.75 388.75,-56.75 388.75,-90.25"/>
<text xml:space="preserve" text-anchor="start" x="278" y="-76.75" font-family="Helvetica,sans-Serif" font-size="10.00">boost/fusion/adapted</text>
<text xml:space="preserve" text-anchor="middle" x="329.38" y="-64" font-family="Helvetica,sans-Serif" font-size="10.00">/std_tuple.hpp</text>
</a>
</g>
</g>
<!-- Node9&#45;&gt;Node14 -->
<g id="edge13_Node000009_Node000014" class="edge">
<title>Node9&#45;&gt;Node14</title>
<g id="a_edge13_Node000009_Node000014"><a xlink:title=" ">
<path fill="none" stroke="#63b8ff" d="M275.66,-125.8C283.39,-118.42 294.32,-107.98 304.3,-98.45"/>
<polygon fill="#63b8ff" stroke="#63b8ff" points="306.47,-101.22 311.28,-91.78 301.63,-96.16 306.47,-101.22"/>
</a>
</g>
</g>
<!-- Node15 -->
<g id="Node000015" class="node">
<title>Node15</title>
<g id="a_Node000015"><a xlink:title=" ">
<polygon fill="#e0e0e0" stroke="#999999" points="533.5,-90.25 407.25,-90.25 407.25,-56.75 533.5,-56.75 533.5,-90.25"/>
<text xml:space="preserve" text-anchor="start" x="415.25" y="-76.75" font-family="Helvetica,sans-Serif" font-size="10.00">boost/fusion/algorithm</text>
<text xml:space="preserve" text-anchor="middle" x="470.38" y="-64" font-family="Helvetica,sans-Serif" font-size="10.00">/iteration/for_each.hpp</text>
</a>
</g>
</g>
<!-- Node9&#45;&gt;Node15 -->
<g id="edge14_Node000009_Node000015" class="edge">
<title>Node9&#45;&gt;Node15</title>
<g id="a_edge14_Node000009_Node000015"><a xlink:title=" ">
<path fill="none" stroke="#63b8ff" d="M298.31,-125.8C327.03,-117.24 369.55,-104.56 405.13,-93.95"/>
<polygon fill="#63b8ff" stroke="#63b8ff" points="405.89,-97.38 414.48,-91.17 403.89,-90.67 405.89,-97.38"/>
</a>
</g>
</g>
<!-- Node16 -->
<g id="Node000016" class="node">
<title>Node16</title>
<g id="a_Node000016"><a xlink:title=" ">
<polygon fill="#e0e0e0" stroke="#999999" points="665.5,-90.25 551.25,-90.25 551.25,-56.75 665.5,-56.75 665.5,-90.25"/>
<text xml:space="preserve" text-anchor="start" x="559.25" y="-76.75" font-family="Helvetica,sans-Serif" font-size="10.00">boost/fusion/include</text>
<text xml:space="preserve" text-anchor="middle" x="608.38" y="-64" font-family="Helvetica,sans-Serif" font-size="10.00">/for_each.hpp</text>
</a>
</g>
</g>
<!-- Node9&#45;&gt;Node16 -->
<g id="edge15_Node000009_Node000016" class="edge">
<title>Node9&#45;&gt;Node16</title>
<g id="a_edge15_Node000009_Node000016"><a xlink:title=" ">
<path fill="none" stroke="#63b8ff" d="M334.21,-125.76C387.77,-117.75 464.21,-105.64 539.71,-90.71"/>
<polygon fill="#63b8ff" stroke="#63b8ff" points="540.23,-94.18 549.35,-88.78 538.86,-87.31 540.23,-94.18"/>
</a>
</g>
</g>
<!-- Node9&#45;&gt;Node17 -->
<g id="edge16_Node000009_Node000017" class="edge">
<title>Node9&#45;&gt;Node17</title>
<g id="a_edge16_Node000009_Node000017"><a xlink:title=" ">
<path fill="none" stroke="#63b8ff" d="M340.99,-127.58C450.14,-115.92 642.33,-95.17 674.38,-90.25 681.62,-89.14 689.21,-87.83 696.71,-86.45"/>
<polygon fill="#63b8ff" stroke="#63b8ff" points="697.3,-89.9 706.47,-84.6 695.99,-83.02 697.3,-89.9"/>
</a>
</g>
</g>
<!-- Node18 -->
<g id="Node000018" class="node">
<title>Node18</title>
<g id="a_Node000018"><a xlink:title=" ">
<polygon fill="#e0e0e0" stroke="#999999" points="814.88,-20.75 693.88,-20.75 693.88,0 814.88,0 814.88,-20.75"/>
<text xml:space="preserve" text-anchor="middle" x="754.38" y="-7.25" font-family="Helvetica,sans-Serif" font-size="10.00">boost/type_index.hpp</text>
</a>
</g>
</g>
<!-- Node17&#45;&gt;Node18 -->
<g id="edge17_Node000017_Node000018" class="edge">
<title>Node17&#45;&gt;Node18</title>
<g id="a_edge17_Node000017_Node000018"><a xlink:title=" ">
<path fill="none" stroke="#63b8ff" d="M754.38,-62.68C754.38,-54.52 754.38,-42.63 754.38,-32.35"/>
<polygon fill="#63b8ff" stroke="#63b8ff" points="757.88,-32.48 754.38,-22.48 750.88,-32.48 757.88,-32.48"/>
</a>
</g>
</g>
</g>
</svg>

<g id="navigator" transform="translate(0 0)" fill="#404254">
  <rect fill="#f2f5e9" fill-opacity="0.5" stroke="#606060" stroke-width=".5" x="0" y="0" width="60" height="60"/>
  <use id="zoomplus" xlink:href="#zoomPlus" x="17" y="9" onmousedown="handleZoom(evt,'in')"/>
  <use id="zoomminus" xlink:href="#zoomMin" x="42" y="9" onmousedown="handleZoom(evt,'out')"/>
  <use id="reset" xlink:href="#resetDef" x="30" y="36" onmousedown="handleReset()"/>
   <use id="arrowup" xlink:href="#arrowUp" x="0" y="0" onmousedown="handlePan(0,-1)"/>
  <use id="arrowright" xlink:href="#arrowRight" x="0" y="0" onmousedown="handlePan(1,0)"/>
  <use id="arrowdown" xlink:href="#arrowDown" x="0" y="0" onmousedown="handlePan(0,1)"/>
  <use id="arrowleft" xlink:href="#arrowLeft" x="0" y="0" onmousedown="handlePan(-1,0)"/>
</g>
<svg viewBox="0 0 15 15" width="100%" height="30px" preserveAspectRatio="xMaxYMin meet">
 <g id="arrow_out" transform="scale(0.3 0.3)">
  <a xlink:href="algorithm__builder_8hpp__incl_org.svg" target="_base">
   <rect id="button" ry="5" rx="5" y="6" x="6" height="38" width="38"
        fill="#f2f5e9" fill-opacity="0.5" stroke="#606060" stroke-width="1.0"/>
   <path id="arrow"
     d="M 11.500037,31.436501 C 11.940474,20.09759 22.043105,11.32322 32.158766,21.979434 L 37.068811,17.246167 C 37.068811,17.246167 37.088388,32 37.088388,32 L 22.160133,31.978069 C 22.160133,31.978069 26.997745,27.140456 26.997745,27.140456 C 18.528582,18.264221 13.291696,25.230495 11.500037,31.436501 z"
     style="fill:#404040;"/>
  </a>
 </g>
</svg>

<style type='text/css'>
<![CDATA[
[data-mouse-over-selected='false'] { opacity: 0.7; }
[data-mouse-over-selected='true']  { opacity: 1.0; }
]]>
</style>
<script type="application/ecmascript"><![CDATA[
document.addEventListener('DOMContentLoaded', (event) => {
  highlightEdges();
  highlightAdjacentNodes();
});
]]></script>
</svg>
