<?xml version="1.0" encoding="UTF-8" standalone="no"?>
<!DOCTYPE svg PUBLIC "-//W3C//DTD SVG 1.1//EN"
 "http://www.w3.org/Graphics/SVG/1.1/DTD/svg11.dtd">
<!-- Generated by graphviz version 14.1.2 (0)
 -->
<!-- Title: core/include/bertini2/nag_algorithms Pages: 1 -->
<!--zoomable 203 -->

<svg id="main" version="1.1" xmlns="http://www.w3.org/2000/svg" xmlns:xlink="http://www.w3.org/1999/xlink" xml:space="preserve" onload="init(evt)">

<style type="text/css"><![CDATA[
.node, .edge {opacity: 0.7;}
.node.selected, .edge.selected {opacity: 1;}
.edge:hover path { stroke: red; }
.edge:hover polygon { stroke: red; fill: red; }
]]></style>

<defs>
  <circle id="rim" cx="0" cy="0" r="7"/>
  <circle id="rim2" cx="0" cy="0" r="3.5"/>
  <g id="zoomPlus">
    <use xlink:href="#rim" fill="#404040"><set attributeName="fill" to="#808080" begin="zoomplus.mouseover" end="zoomplus.mouseout"/></use>
    <path d="M-4,0h8M0,-4v8" fill="none" stroke="white" stroke-width="1.5" pointer-events="none"/>
  </g>
  <g id="zoomMin">
    <use xlink:href="#rim" fill="#404040"><set attributeName="fill" to="#808080" begin="zoomminus.mouseover" end="zoomminus.mouseout"/></use>
    <path d="M-4,0h8" fill="none" stroke="white" stroke-width="1.5" pointer-events="none"/>
  </g>
  <g id="arrowUp" transform="translate(30 24)">
    <use xlink:href="#rim"/>
    <path pointer-events="none" fill="none" stroke="white" stroke-width="1.5" d="M0,-3.0v7 M-2.5,-0.5L0,-3.0L2.5,-0.5"/>
  </g>
  <g id="arrowRight" transform="rotate(90) translate(36 -43)">
    <use xlink:href="#rim"/>
    <path pointer-events="none" fill="none" stroke="white" stroke-width="1.5" d="M0,-3.0v7 M-2.5,-0.5L0,-3.0L2.5,-0.5"/>
  </g>
  <g id="arrowDown" transform="rotate(180) translate(-30 -48)">
    <use xlink:href="#rim"/>
    <path pointer-events="none" fill="none" stroke="white" stroke-width="1.5" d="M0,-3.0v7 M-2.5,-0.5L0,-3.0L2.5,-0.5"/>
  </g>
  <g id="arrowLeft" transform="rotate(270) translate(-36 17)">
    <use xlink:href="#rim"/>
    <path pointer-events="none" fill="none" stroke="white" stroke-width="1.5" d="M0,-3.0v7 M-2.5,-0.5L0,-3.0L2.5,-0.5"/>
  </g>
  <g id="resetDef">
    <use xlink:href="#rim2" fill="#404040"><set attributeName="fill" to="#808080" begin="reset.mouseover" end="reset.mouseout"/></use>
  </g>
</defs>
<script type="application/ecmascript">
var viewWidth = 508;
var viewHeight = 203;
var sectionId = 'dynsection-0';
</script>
<script type="application/ecmascript" xlink:href="svg.min.js"/>
<svg id="graph" class="graph">
<g id="viewport">
<title>core/include/bertini2/nag_algorithms</title>
<g id="clust1" class="cluster">
<title>clusterdir_64c64ac462d39cd1bd558f48af1e44d4</title>
<g id="a_clust1"><a xlink:href="dir_64c64ac462d39cd1bd558f48af1e44d4.html" target="_top" xlink:title="bertini2">
<polygon fill="#edf0f7" stroke="#7f7f7f" stroke-dasharray="5,2" points="8,-8 8,-187 492,-187 492,-8 8,-8"/>
<text xml:space="preserve" text-anchor="middle" x="250" y="-173.5" font-family="Helvetica,sans-Serif" font-size="10.00">bertini2</text>
</a>
</g>
</g>
<g id="clust2" class="cluster">
<title>clusterdir_e82fb32a341758d643a58d08f4821b0e</title>
<g id="a_clust2"><a xlink:href="dir_e82fb32a341758d643a58d08f4821b0e.html" target="_top">
<polygon fill="#edf0f7" stroke="#404040" stroke-width="2" points="340,-64.75 340,-158.25 448,-158.25 448,-64.75 340,-64.75"/>
</a>
</g>
</g>
<!-- dir_1f32c398299353cca8f481fc9bf4872e -->
<g id="node1" class="node">
<title>dir_1f32c398299353cca8f481fc9bf4872e</title>
<g id="a_node1"><a xlink:href="dir_1f32c398299353cca8f481fc9bf4872e.html" target="_top" xlink:title="nag_datatypes">
<polygon fill="#a2b4d6" stroke="red" points="124,-93.5 36,-93.5 36,-72.75 124,-72.75 124,-93.5"/>
<text xml:space="preserve" text-anchor="middle" x="80" y="-80" font-family="Helvetica,sans-Serif" font-size="10.00">nag_datatypes</text>
</a>
</g>
</g>
<!-- dir_5dc52de47523f67e2e814b3ee1905d12 -->
<g id="node2" class="node">
<title>dir_5dc52de47523f67e2e814b3ee1905d12</title>
<g id="a_node2"><a xlink:href="dir_5dc52de47523f67e2e814b3ee1905d12.html" target="_top" xlink:title="common">
<polygon fill="#a2b4d6" stroke="#404040" points="200.38,-93.5 141.62,-93.5 141.62,-72.75 200.38,-72.75 200.38,-93.5"/>
<text xml:space="preserve" text-anchor="middle" x="171" y="-80" font-family="Helvetica,sans-Serif" font-size="10.00">common</text>
</a>
</g>
</g>
<!-- dir_8b8f5095d030c0d013d1b05815103d9c -->
<g id="node3" class="node">
<title>dir_8b8f5095d030c0d013d1b05815103d9c</title>
<g id="a_node3"><a xlink:href="dir_8b8f5095d030c0d013d1b05815103d9c.html" target="_top" xlink:title="records">
<polygon fill="#a2b4d6" stroke="#404040" points="270,-93.5 218,-93.5 218,-72.75 270,-72.75 270,-93.5"/>
<text xml:space="preserve" text-anchor="middle" x="244" y="-80" font-family="Helvetica,sans-Serif" font-size="10.00">records</text>
</a>
</g>
</g>
<!-- dir_93cf08b26621482f5645c00d24b72903 -->
<g id="node4" class="node">
<title>dir_93cf08b26621482f5645c00d24b72903</title>
<g id="a_node4"><a xlink:href="dir_93cf08b26621482f5645c00d24b72903.html" target="_top" xlink:title="linalg">
<polygon fill="#a2b4d6" stroke="#404040" points="331.5,-93.5 288.5,-93.5 288.5,-72.75 331.5,-72.75 331.5,-93.5"/>
<text xml:space="preserve" text-anchor="middle" x="310" y="-80" font-family="Helvetica,sans-Serif" font-size="10.00">linalg</text>
</a>
</g>
</g>
<!-- dir_c22ec688145a255f1940a8081b99823e -->
<g id="node5" class="node">
<title>dir_c22ec688145a255f1940a8081b99823e</title>
<g id="a_node5"><a xlink:href="dir_c22ec688145a255f1940a8081b99823e.html" target="_top" xlink:title="system">
<polygon fill="#a2b4d6" stroke="red" points="228,-36.75 176,-36.75 176,-16 228,-16 228,-36.75"/>
<text xml:space="preserve" text-anchor="middle" x="202" y="-23.25" font-family="Helvetica,sans-Serif" font-size="10.00">system</text>
</a>
</g>
</g>
<!-- dir_e0c8a34964e69a3fee23a631877a9b3d -->
<g id="node6" class="node">
<title>dir_e0c8a34964e69a3fee23a631877a9b3d</title>
<g id="a_node6"><a xlink:href="dir_e0c8a34964e69a3fee23a631877a9b3d.html" target="_top" xlink:title="detail">
<polygon fill="#a2b4d6" stroke="#404040" points="424.88,-36.75 381.12,-36.75 381.12,-16 424.88,-16 424.88,-36.75"/>
<text xml:space="preserve" text-anchor="middle" x="403" y="-23.25" font-family="Helvetica,sans-Serif" font-size="10.00">detail</text>
</a>
</g>
</g>
<!-- dir_eeb06eaa2cbfd1885d7ed65a090c356c -->
<g id="node7" class="node">
<title>dir_eeb06eaa2cbfd1885d7ed65a090c356c</title>
<g id="a_node7"><a xlink:href="dir_eeb06eaa2cbfd1885d7ed65a090c356c.html" target="_top" xlink:title="io">
<polygon fill="#a2b4d6" stroke="red" points="484.4,-93.5 455.6,-93.5 455.6,-72.75 484.4,-72.75 484.4,-93.5"/>
<text xml:space="preserve" text-anchor="middle" x="470" y="-80" font-family="Helvetica,sans-Serif" font-size="10.00">io</text>
</a>
</g>
</g>
<!-- dir_e82fb32a341758d643a58d08f4821b0e -->
<g id="node8" class="node">
<title>dir_e82fb32a341758d643a58d08f4821b0e</title>
<text xml:space="preserve" text-anchor="middle" x="394" y="-136.75" font-family="Helvetica,sans-Serif" font-size="10.00">nag_algorithms</text>
</g>
<!-- dir_e82fb32a341758d643a58d08f4821b0e&#45;&gt;dir_1f32c398299353cca8f481fc9bf4872e -->
<g id="edge1" class="edge">
<title>dir_e82fb32a341758d643a58d08f4821b0e&#45;&gt;dir_1f32c398299353cca8f481fc9bf4872e</title>
<g id="a_edge1"><a xlink:href="dir_000013_000014.html" target="_top">
<path fill="none" stroke="#63b8ff" d="M348.26,-130.96C298.38,-122.33 215.9,-108.02 135.11,-93.87"/>
<polygon fill="#63b8ff" stroke="#63b8ff" points="136.19,-90.5 125.74,-92.22 134.98,-97.4 136.19,-90.5"/>
</a>
</g>
<g id="a_edge1&#45;headlabel"><a xlink:href="dir_000013_000014.html" target="_top" xlink:title="2">
<text xml:space="preserve" text-anchor="middle" x="138.73" y="-84.94" font-family="Helvetica,sans-Serif" font-size="10.00" fill="#63b8ff">2</text>
</a>
</g>
</g>
<!-- dir_e82fb32a341758d643a58d08f4821b0e&#45;&gt;dir_5dc52de47523f67e2e814b3ee1905d12 -->
<g id="edge3" class="edge">
<title>dir_e82fb32a341758d643a58d08f4821b0e&#45;&gt;dir_5dc52de47523f67e2e814b3ee1905d12</title>
<g id="a_edge3"><a xlink:href="dir_000013_000003.html" target="_top">
<path fill="none" stroke="#63b8ff" d="M355.73,-129.5C320.65,-120.91 266.98,-107.76 211.9,-94.21"/>
<polygon fill="#63b8ff" stroke="#63b8ff" points="212.89,-90.85 202.34,-91.86 211.21,-97.65 212.89,-90.85"/>
</a>
</g>
<g id="a_edge3&#45;headlabel"><a xlink:href="dir_000013_000003.html" target="_top" xlink:title="3">
<text xml:space="preserve" text-anchor="middle" x="215.59" y="-85.46" font-family="Helvetica,sans-Serif" font-size="10.00" fill="#63b8ff">3</text>
</a>
</g>
</g>
<!-- dir_e82fb32a341758d643a58d08f4821b0e&#45;&gt;dir_8b8f5095d030c0d013d1b05815103d9c -->
<g id="edge4" class="edge">
<title>dir_e82fb32a341758d643a58d08f4821b0e&#45;&gt;dir_8b8f5095d030c0d013d1b05815103d9c</title>
<g id="a_edge4"><a xlink:href="dir_000013_000019.html" target="_top">
<path fill="none" stroke="#63b8ff" d="M368.55,-129.59C344.53,-120.82 308.23,-107.57 281.01,-97.63"/>
<polygon fill="#63b8ff" stroke="#63b8ff" points="282.34,-94.39 271.75,-94.25 279.94,-100.97 282.34,-94.39"/>
</a>
</g>
<g id="a_edge4&#45;headlabel"><a xlink:href="dir_000013_000019.html" target="_top" xlink:title="4">
<text xml:space="preserve" text-anchor="middle" x="285.27" y="-89.32" font-family="Helvetica,sans-Serif" font-size="10.00" fill="#63b8ff">4</text>
</a>
</g>
</g>
<!-- dir_e82fb32a341758d643a58d08f4821b0e&#45;&gt;dir_93cf08b26621482f5645c00d24b72903 -->
<g id="edge5" class="edge">
<title>dir_e82fb32a341758d643a58d08f4821b0e&#45;&gt;dir_93cf08b26621482f5645c00d24b72903</title>
<g id="a_edge5"><a xlink:href="dir_000013_000012.html" target="_top">
<path fill="none" stroke="#63b8ff" d="M379.75,-129.59C367.35,-121.51 349.11,-109.62 334.4,-100.03"/>
<polygon fill="#63b8ff" stroke="#63b8ff" points="336.44,-97.18 326.15,-94.65 332.62,-103.05 336.44,-97.18"/>
</a>
</g>
<g id="a_edge5&#45;headlabel"><a xlink:href="dir_000013_000012.html" target="_top" xlink:title="1">
<text xml:space="preserve" text-anchor="middle" x="339.74" y="-92.81" font-family="Helvetica,sans-Serif" font-size="10.00" fill="#63b8ff">1</text>
</a>
</g>
</g>
<!-- dir_e82fb32a341758d643a58d08f4821b0e&#45;&gt;dir_c22ec688145a255f1940a8081b99823e -->
<g id="edge6" class="edge">
<title>dir_e82fb32a341758d643a58d08f4821b0e&#45;&gt;dir_c22ec688145a255f1940a8081b99823e</title>
<g id="a_edge6"><a xlink:href="dir_000013_000025.html" target="_top">
<path fill="none" stroke="#63b8ff" d="M348.2,-136.55C254.51,-131.33 47.97,-117.22 27,-93.5 -13.72,-47.44 101.47,-33.34 164.26,-29.12"/>
<polygon fill="#63b8ff" stroke="#63b8ff" points="164.41,-32.62 174.18,-28.52 163.98,-25.63 164.41,-32.62"/>
</a>
</g>
<g id="a_edge6&#45;headlabel"><a xlink:href="dir_000013_000025.html" target="_top" xlink:title="4">
<text xml:space="preserve" text-anchor="middle" x="162.51" y="-32.45" font-family="Helvetica,sans-Serif" font-size="10.00" fill="#63b8ff">4</text>
</a>
</g>
</g>
<!-- dir_e82fb32a341758d643a58d08f4821b0e&#45;&gt;dir_e0c8a34964e69a3fee23a631877a9b3d -->
<g id="edge7" class="edge">
<title>dir_e82fb32a341758d643a58d08f4821b0e&#45;&gt;dir_e0c8a34964e69a3fee23a631877a9b3d</title>
<g id="a_edge7"><a xlink:href="dir_000013_000007.html" target="_top">
<path fill="none" stroke="#63b8ff" d="M400.32,-129.65C405.96,-120.82 413.8,-106.9 417,-93.5 419.97,-81.07 419.28,-77.32 417,-64.75 415.96,-59 414.08,-52.99 412.04,-47.5"/>
<polygon fill="#63b8ff" stroke="#63b8ff" points="415.44,-46.56 408.39,-38.65 408.97,-49.23 415.44,-46.56"/>
</a>
</g>
<g id="a_edge7&#45;headlabel"><a xlink:href="dir_000013_000007.html" target="_top" xlink:title="11">
<text xml:space="preserve" text-anchor="middle" x="418.86" y="-44.28" font-family="Helvetica,sans-Serif" font-size="10.00" fill="#63b8ff">11</text>
</a>
</g>
</g>
<!-- dir_e82fb32a341758d643a58d08f4821b0e&#45;&gt;dir_eeb06eaa2cbfd1885d7ed65a090c356c -->
<g id="edge8" class="edge">
<title>dir_e82fb32a341758d643a58d08f4821b0e&#45;&gt;dir_eeb06eaa2cbfd1885d7ed65a090c356c</title>
<g id="a_edge8"><a xlink:href="dir_000013_000011.html" target="_top">
<path fill="none" stroke="#63b8ff" d="M406.89,-129.59C418,-121.58 434.29,-109.85 447.54,-100.3"/>
<polygon fill="#63b8ff" stroke="#63b8ff" points="449.24,-103.4 455.3,-94.71 445.14,-97.72 449.24,-103.4"/>
</a>
</g>
<g id="a_edge8&#45;headlabel"><a xlink:href="dir_000013_000011.html" target="_top" xlink:title="6">
<text xml:space="preserve" text-anchor="middle" x="449.21" y="-103.79" font-family="Helvetica,sans-Serif" font-size="10.00" fill="#63b8ff">6</text>
</a>
</g>
</g>
<!-- dir_2966b8ac1c2cad9c44fba7d7978a6afa -->
<g id="node9" class="node">
<title>dir_2966b8ac1c2cad9c44fba7d7978a6afa</title>
<g id="a_node9"><a xlink:href="dir_2966b8ac1c2cad9c44fba7d7978a6afa.html" target="_top" xlink:title="common">
<polygon fill="#a2b4d6" stroke="#404040" points="408.38,-93.5 349.62,-93.5 349.62,-72.75 408.38,-72.75 408.38,-93.5"/>
<text xml:space="preserve" text-anchor="middle" x="379" y="-80" font-family="Helvetica,sans-Serif" font-size="10.00">common</text>
</a>
</g>
</g>
<!-- dir_e82fb32a341758d643a58d08f4821b0e&#45;&gt;dir_2966b8ac1c2cad9c44fba7d7978a6afa -->
<g id="edge2" class="edge">
<title>dir_e82fb32a341758d643a58d08f4821b0e&#45;&gt;dir_2966b8ac1c2cad9c44fba7d7978a6afa</title>
<g id="a_edge2"><a xlink:href="dir_000013_000004.html" target="_top">
<path fill="none" stroke="#63b8ff" d="M391.52,-129.83C389.65,-122.99 386.99,-113.3 384.61,-104.61"/>
<polygon fill="#63b8ff" stroke="#63b8ff" points="388.05,-103.91 382.03,-95.19 381.3,-105.76 388.05,-103.91"/>
</a>
</g>
<g id="a_edge2&#45;headlabel"><a xlink:href="dir_000013_000004.html" target="_top" xlink:title="6">
<text xml:space="preserve" text-anchor="middle" x="391.34" y="-102.04" font-family="Helvetica,sans-Serif" font-size="10.00" fill="#63b8ff">6</text>
</a>
</g>
</g>
<!-- dir_2966b8ac1c2cad9c44fba7d7978a6afa&#45;&gt;dir_c22ec688145a255f1940a8081b99823e -->
<g id="edge9" class="edge">
<title>dir_2966b8ac1c2cad9c44fba7d7978a6afa&#45;&gt;dir_c22ec688145a255f1940a8081b99823e</title>
<g id="a_edge9"><a xlink:href="dir_000004_000025.html" target="_top">
<path fill="none" stroke="#63b8ff" d="M362.22,-72.34C357.13,-69.63 351.43,-66.85 346,-64.75 310.81,-51.13 268.88,-40.88 239.37,-34.59"/>
<polygon fill="#63b8ff" stroke="#63b8ff" points="240.3,-31.21 229.8,-32.61 238.88,-38.07 240.3,-31.21"/>
</a>
</g>
<g id="a_edge9&#45;headlabel"><a xlink:href="dir_000004_000025.html" target="_top" xlink:title="1">
<text xml:space="preserve" text-anchor="middle" x="242.92" y="-25.73" font-family="Helvetica,sans-Serif" font-size="10.00" fill="#63b8ff">1</text>
</a>
</g>
</g>
<!-- dir_2966b8ac1c2cad9c44fba7d7978a6afa&#45;&gt;dir_e0c8a34964e69a3fee23a631877a9b3d -->
<g id="edge10" class="edge">
<title>dir_2966b8ac1c2cad9c44fba7d7978a6afa&#45;&gt;dir_e0c8a34964e69a3fee23a631877a9b3d</title>
<g id="a_edge10"><a xlink:href="dir_000004_000007.html" target="_top">
<path fill="none" stroke="#63b8ff" d="M383.29,-72.34C386.33,-65.41 390.51,-55.87 394.24,-47.36"/>
<polygon fill="#63b8ff" stroke="#63b8ff" points="397.33,-49.03 398.14,-38.46 390.92,-46.22 397.33,-49.03"/>
</a>
</g>
<g id="a_edge10&#45;headlabel"><a xlink:href="dir_000004_000007.html" target="_top" xlink:title="1">
<text xml:space="preserve" text-anchor="middle" x="399.09" y="-48.95" font-family="Helvetica,sans-Serif" font-size="10.00" fill="#63b8ff">1</text>
</a>
</g>
</g>
</g>
</svg>

<g id="navigator" transform="translate(0 0)" fill="#404254">
  <rect fill="#f2f5e9" fill-opacity="0.5" stroke="#606060" stroke-width=".5" x="0" y="0" width="60" height="60"/>
  <use id="zoomplus" xlink:href="#zoomPlus" x="17" y="9" onmousedown="handleZoom(evt,'in')"/>
  <use id="zoomminus" xlink:href="#zoomMin" x="42" y="9" onmousedown="handleZoom(evt,'out')"/>
  <use id="reset" xlink:href="#resetDef" x="30" y="36" onmousedown="handleReset()"/>
   <use id="arrowup" xlink:href="#arrowUp" x="0" y="0" onmousedown="handlePan(0,-1)"/>
  <use id="arrowright" xlink:href="#arrowRight" x="0" y="0" onmousedown="handlePan(1,0)"/>
  <use id="arrowdown" xlink:href="#arrowDown" x="0" y="0" onmousedown="handlePan(0,1)"/>
  <use id="arrowleft" xlink:href="#arrowLeft" x="0" y="0" onmousedown="handlePan(-1,0)"/>
</g>
<svg viewBox="0 0 15 15" width="100%" height="30px" preserveAspectRatio="xMaxYMin meet">
 <g id="arrow_out" transform="scale(0.3 0.3)">
  <a xlink:href="dir_e82fb32a341758d643a58d08f4821b0e_dep_org.svg" target="_base">
   <rect id="button" ry="5" rx="5" y="6" x="6" height="38" width="38"
        fill="#f2f5e9" fill-opacity="0.5" stroke="#606060" stroke-width="1.0"/>
   <path id="arrow"
     d="M 11.500037,31.436501 C 11.940474,20.09759 22.043105,11.32322 32.158766,21.979434 L 37.068811,17.246167 C 37.068811,17.246167 37.088388,32 37.088388,32 L 22.160133,31.978069 C 22.160133,31.978069 26.997745,27.140456 26.997745,27.140456 C 18.528582,18.264221 13.291696,25.230495 11.500037,31.436501 z"
     style="fill:#404040;"/>
  </a>
 </g>
</svg>

<style type='text/css'>
<![CDATA[
[data-mouse-over-selected='false'] { opacity: 0.7; }
[data-mouse-over-selected='true']  { opacity: 1.0; }
]]>
</style>
<script type="application/ecmascript"><![CDATA[
document.addEventListener('DOMContentLoaded', (event) => {
  highlightEdges();
  highlightAdjacentNodes();
});
]]></script>
</svg>
