<?xml version="1.0" encoding="UTF-8" standalone="no"?>
<!DOCTYPE svg PUBLIC "-//W3C//DTD SVG 1.1//EN"
 "http://www.w3.org/Graphics/SVG/1.1/DTD/svg11.dtd">
<!-- Generated by graphviz version 14.1.2 (0)
 -->
<!-- Title: Graphical Class Hierarchy Pages: 1 -->
<svg width="311pt" height="2250pt"
 viewBox="0.00 0.00 311.00 2250.00" xmlns="http://www.w3.org/2000/svg" xmlns:xlink="http://www.w3.org/1999/xlink">
<g id="graph0" class="graph" transform="scale(1 1) rotate(0) translate(4 2245.62)">
<title>Graphical Class Hierarchy</title>
<!-- Node0 -->
<g id="Node000000" class="node">
<title>Node0</title>
<g id="a_Node000000"><a xlink:title=" ">
<polygon fill="#e0e0e0" stroke="#999999" points="76,-1079.5 0,-1079.5 0,-1058.75 76,-1058.75 76,-1079.5"/>
<text xml:space="preserve" text-anchor="middle" x="38" y="-1066" font-family="Helvetica,sans-Serif" font-size="10.00">qi::grammar</text>
</a>
</g>
</g>
<!-- Node1 -->
<g id="Node000001" class="node">
<title>Node1</title>
<g id="a_Node000001"><a xlink:href="structbertini_1_1parsing_1_1classic_1_1ConfigSettingParser_3_01Iterator_00_01AdaptiveMultiplePrecisionConfig_00_01Skipper_01_4.html" target="_top" xlink:title="Parser for the AdaptiveMultiplePrecisionConfig settings block of classic Bertini input.">
<polygon fill="white" stroke="#666666" points="301.62,-2241.62 113.12,-2241.62 113.12,-2182.62 301.62,-2182.62 301.62,-2241.62"/>
<text xml:space="preserve" text-anchor="start" x="121.12" y="-2228.12" font-family="Helvetica,sans-Serif" font-size="10.00">bertini::parsing::classic</text>
<text xml:space="preserve" text-anchor="start" x="121.12" y="-2215.38" font-family="Helvetica,sans-Serif" font-size="10.00">::ConfigSettingParser&lt;</text>
<text xml:space="preserve" text-anchor="start" x="121.12" y="-2202.62" font-family="Helvetica,sans-Serif" font-size="10.00"> Iterator, AdaptiveMultiplePrecision</text>
<text xml:space="preserve" text-anchor="middle" x="207.38" y="-2189.88" font-family="Helvetica,sans-Serif" font-size="10.00">Config, Skipper &gt;</text>
</a>
</g>
</g>
<!-- Node0&#45;&gt;Node1 -->
<g id="edge118_Node000000_Node000001" class="edge">
<title>Node0&#45;&gt;Node1</title>
<g id="a_edge118_Node000000_Node000001"><a xlink:title=" ">
<path fill="none" stroke="#63b8ff" d="M39.07,-1091.21C39.7,-1239.18 46.17,-2083.26 112,-2174.12 114.18,-2177.13 116.63,-2179.9 119.3,-2182.44"/>
<polygon fill="#63b8ff" stroke="#63b8ff" points="42.57,-1091.26 39.03,-1081.27 35.57,-1091.28 42.57,-1091.26"/>
</a>
</g>
</g>
<!-- Node2 -->
<g id="Node000002" class="node">
<title>Node2</title>
<g id="a_Node000002"><a xlink:href="structbertini_1_1parsing_1_1classic_1_1ConfigSettingParser_3_01Iterator_00_01FixedPrecisionConfig_00_01Skipper_01_4.html" target="_top" xlink:title="As of this writing, there are no meaningful settings in FixedPrecisionConfig, so this parser is ....">
<polygon fill="white" stroke="#666666" points="289.62,-2164.62 125.12,-2164.62 125.12,-2105.62 289.62,-2105.62 289.62,-2164.62"/>
<text xml:space="preserve" text-anchor="start" x="133.12" y="-2151.12" font-family="Helvetica,sans-Serif" font-size="10.00">bertini::parsing::classic</text>
<text xml:space="preserve" text-anchor="start" x="133.12" y="-2138.38" font-family="Helvetica,sans-Serif" font-size="10.00">::ConfigSettingParser&lt;</text>
<text xml:space="preserve" text-anchor="start" x="133.12" y="-2125.62" font-family="Helvetica,sans-Serif" font-size="10.00"> Iterator, FixedPrecisionConfig,</text>
<text xml:space="preserve" text-anchor="middle" x="207.38" y="-2112.88" font-family="Helvetica,sans-Serif" font-size="10.00"> Skipper &gt;</text>
</a>
</g>
</g>
<!-- Node0&#45;&gt;Node2 -->
<g id="edge119_Node000000_Node000002" class="edge">
<title>Node0&#45;&gt;Node2</title>
<g id="a_edge119_Node000000_Node000002"><a xlink:title=" ">
<path fill="none" stroke="#63b8ff" d="M39.18,-1091.41C40.55,-1233.82 50.78,-2013.06 112,-2097.12 115.64,-2102.12 120.05,-2106.46 124.95,-2110.23"/>
<polygon fill="#63b8ff" stroke="#63b8ff" points="42.69,-1091.46 39.1,-1081.49 35.69,-1091.52 42.69,-1091.46"/>
</a>
</g>
</g>
<!-- Node3 -->
<g id="Node000003" class="node">
<title>Node3</title>
<g id="a_Node000003"><a xlink:href="structbertini_1_1parsing_1_1classic_1_1ConfigSettingParser_3_01Iterator_00_01NewtonConfig_00_01Skipper_01_4.html" target="_top" xlink:title="Parser for the NewtonConfig settings block of classic Bertini input.">
<polygon fill="white" stroke="#666666" points="273.5,-2087.62 141.25,-2087.62 141.25,-2028.62 273.5,-2028.62 273.5,-2087.62"/>
<text xml:space="preserve" text-anchor="start" x="149.25" y="-2074.12" font-family="Helvetica,sans-Serif" font-size="10.00">bertini::parsing::classic</text>
<text xml:space="preserve" text-anchor="start" x="149.25" y="-2061.38" font-family="Helvetica,sans-Serif" font-size="10.00">::ConfigSettingParser&lt;</text>
<text xml:space="preserve" text-anchor="start" x="149.25" y="-2048.62" font-family="Helvetica,sans-Serif" font-size="10.00"> Iterator, NewtonConfig,</text>
<text xml:space="preserve" text-anchor="middle" x="207.38" y="-2035.88" font-family="Helvetica,sans-Serif" font-size="10.00"> Skipper &gt;</text>
</a>
</g>
</g>
<!-- Node0&#45;&gt;Node3 -->
<g id="edge120_Node000000_Node000003" class="edge">
<title>Node0&#45;&gt;Node3</title>
<g id="a_edge120_Node000000_Node000003"><a xlink:title=" ">
<path fill="none" stroke="#63b8ff" d="M39.31,-1090.98C41.43,-1225.95 55.29,-1942.73 112,-2020.12 119.31,-2030.1 129.67,-2037.46 140.88,-2042.89"/>
<polygon fill="#63b8ff" stroke="#63b8ff" points="42.82,-1091.24 39.17,-1081.29 35.82,-1091.35 42.82,-1091.24"/>
</a>
</g>
</g>
<!-- Node4 -->
<g id="Node000004" class="node">
<title>Node4</title>
<g id="a_Node000004"><a xlink:href="structbertini_1_1parsing_1_1classic_1_1ConfigSettingParser_3_01Iterator_00_01PrecisionType_00_01Skipper_01_4.html" target="_top" xlink:title="Qi Parser object for parsing config settings This ensures we can provide backwards compatibility with...">
<polygon fill="white" stroke="#666666" points="272.75,-2010.62 142,-2010.62 142,-1951.62 272.75,-1951.62 272.75,-2010.62"/>
<text xml:space="preserve" text-anchor="start" x="150" y="-1997.12" font-family="Helvetica,sans-Serif" font-size="10.00">bertini::parsing::classic</text>
<text xml:space="preserve" text-anchor="start" x="150" y="-1984.38" font-family="Helvetica,sans-Serif" font-size="10.00">::ConfigSettingParser&lt;</text>
<text xml:space="preserve" text-anchor="start" x="150" y="-1971.62" font-family="Helvetica,sans-Serif" font-size="10.00"> Iterator, PrecisionType,</text>
<text xml:space="preserve" text-anchor="middle" x="207.38" y="-1958.88" font-family="Helvetica,sans-Serif" font-size="10.00"> Skipper &gt;</text>
</a>
</g>
</g>
<!-- Node0&#45;&gt;Node4 -->
<g id="edge121_Node000000_Node000004" class="edge">
<title>Node0&#45;&gt;Node4</title>
<g id="a_edge121_Node000000_Node000004"><a xlink:title=" ">
<path fill="none" stroke="#63b8ff" d="M39.49,-1091.14C42.5,-1219.83 60.26,-1871.34 112,-1942.12 119.53,-1952.43 130.29,-1960.02 141.87,-1965.62"/>
<polygon fill="#63b8ff" stroke="#63b8ff" points="42.99,-1091.21 39.26,-1081.29 35.99,-1091.37 42.99,-1091.21"/>
</a>
</g>
</g>
<!-- Node5 -->
<g id="Node000005" class="node">
<title>Node5</title>
<g id="a_Node000005"><a xlink:href="structbertini_1_1parsing_1_1classic_1_1ConfigSettingParser_3_01Iterator_00_01Predictor_00_01Skipper_01_4.html" target="_top" xlink:title="Parser for the Predictor settings block of classic Bertini input.">
<polygon fill="white" stroke="#666666" points="286.62,-1933.25 128.12,-1933.25 128.12,-1887 286.62,-1887 286.62,-1933.25"/>
<text xml:space="preserve" text-anchor="start" x="136.12" y="-1919.75" font-family="Helvetica,sans-Serif" font-size="10.00">bertini::parsing::classic</text>
<text xml:space="preserve" text-anchor="start" x="136.12" y="-1907" font-family="Helvetica,sans-Serif" font-size="10.00">::ConfigSettingParser&lt;</text>
<text xml:space="preserve" text-anchor="middle" x="207.38" y="-1894.25" font-family="Helvetica,sans-Serif" font-size="10.00"> Iterator, Predictor, Skipper &gt;</text>
</a>
</g>
</g>
<!-- Node0&#45;&gt;Node5 -->
<g id="edge122_Node000000_Node000005" class="edge">
<title>Node0&#45;&gt;Node5</title>
<g id="a_edge122_Node000000_Node000005"><a xlink:title=" ">
<path fill="none" stroke="#63b8ff" d="M39.57,-1091.09C42.95,-1214.14 61.92,-1814.52 112,-1878.12 116.39,-1883.7 121.79,-1888.31 127.77,-1892.12"/>
<polygon fill="#63b8ff" stroke="#63b8ff" points="43.08,-1091.28 39.31,-1081.38 36.08,-1091.47 43.08,-1091.28"/>
</a>
</g>
</g>
<!-- Node6 -->
<g id="Node000006" class="node">
<title>Node6</title>
<g id="a_Node000006"><a xlink:href="structbertini_1_1parsing_1_1classic_1_1ConfigSettingParser_3_01Iterator_00_01SteppingConfig_00_01Skipper_01_4.html" target="_top" xlink:title="Parser for the SteppingConfig settings block of classic Bertini input.">
<polygon fill="white" stroke="#666666" points="276.12,-1868.62 138.62,-1868.62 138.62,-1809.62 276.12,-1809.62 276.12,-1868.62"/>
<text xml:space="preserve" text-anchor="start" x="146.62" y="-1855.12" font-family="Helvetica,sans-Serif" font-size="10.00">bertini::parsing::classic</text>
<text xml:space="preserve" text-anchor="start" x="146.62" y="-1842.38" font-family="Helvetica,sans-Serif" font-size="10.00">::ConfigSettingParser&lt;</text>
<text xml:space="preserve" text-anchor="start" x="146.62" y="-1829.62" font-family="Helvetica,sans-Serif" font-size="10.00"> Iterator, SteppingConfig,</text>
<text xml:space="preserve" text-anchor="middle" x="207.38" y="-1816.88" font-family="Helvetica,sans-Serif" font-size="10.00"> Skipper &gt;</text>
</a>
</g>
</g>
<!-- Node0&#45;&gt;Node6 -->
<g id="edge123_Node000000_Node000006" class="edge">
<title>Node0&#45;&gt;Node6</title>
<g id="a_edge123_Node000000_Node000006"><a xlink:title=" ">
<path fill="none" stroke="#63b8ff" d="M39.85,-1091.09C44.5,-1206.84 68.27,-1742.85 112,-1801.12 118.78,-1810.17 128.07,-1817.06 138.19,-1822.32"/>
<polygon fill="#63b8ff" stroke="#63b8ff" points="43.36,-1091.26 39.47,-1081.41 36.36,-1091.54 43.36,-1091.26"/>
</a>
</g>
</g>
<!-- Node7 -->
<g id="Node000007" class="node">
<title>Node7</title>
<g id="a_Node000007"><a xlink:href="structbertini_1_1parsing_1_1classic_1_1ConfigSettingParser_3_01Iterator_00_01TrackerConfig_00_01Skipper_01_4.html" target="_top" xlink:title="The tracker&#39;s own settings, from a classic input file.">
<polygon fill="white" stroke="#666666" points="272,-1791.62 142.75,-1791.62 142.75,-1732.62 272,-1732.62 272,-1791.62"/>
<text xml:space="preserve" text-anchor="start" x="150.75" y="-1778.12" font-family="Helvetica,sans-Serif" font-size="10.00">bertini::parsing::classic</text>
<text xml:space="preserve" text-anchor="start" x="150.75" y="-1765.38" font-family="Helvetica,sans-Serif" font-size="10.00">::ConfigSettingParser&lt;</text>
<text xml:space="preserve" text-anchor="start" x="150.75" y="-1752.62" font-family="Helvetica,sans-Serif" font-size="10.00"> Iterator, TrackerConfig,</text>
<text xml:space="preserve" text-anchor="middle" x="207.38" y="-1739.88" font-family="Helvetica,sans-Serif" font-size="10.00"> Skipper &gt;</text>
</a>
</g>
</g>
<!-- Node0&#45;&gt;Node7 -->
<g id="edge124_Node000000_Node000007" class="edge">
<title>Node0&#45;&gt;Node7</title>
<g id="a_edge124_Node000000_Node000007"><a xlink:title=" ">
<path fill="none" stroke="#63b8ff" d="M40.12,-1091.1C45.81,-1199.32 72.81,-1672.52 112,-1724.12 119.8,-1734.39 130.82,-1741.9 142.6,-1747.37"/>
<polygon fill="#63b8ff" stroke="#63b8ff" points="43.62,-1091.08 39.61,-1081.28 36.63,-1091.44 43.62,-1091.08"/>
</a>
</g>
</g>
<!-- Node8 -->
<g id="Node000008" class="node">
<title>Node8</title>
<g id="a_Node000008"><a xlink:href="structbertini_1_1parsing_1_1classic_1_1ConfigSettingParser_3_01Iterator_00_01algorithm_1_1AutoRetrackConfig_00_01Skipper_01_4.html" target="_top" xlink:title="Parser for the AutoRetrackConfig settings block of classic Bertini input.">
<polygon fill="white" stroke="#666666" points="294.5,-1714.62 120.25,-1714.62 120.25,-1655.62 294.5,-1655.62 294.5,-1714.62"/>
<text xml:space="preserve" text-anchor="start" x="128.25" y="-1701.12" font-family="Helvetica,sans-Serif" font-size="10.00">bertini::parsing::classic</text>
<text xml:space="preserve" text-anchor="start" x="128.25" y="-1688.38" font-family="Helvetica,sans-Serif" font-size="10.00">::ConfigSettingParser&lt;</text>
<text xml:space="preserve" text-anchor="start" x="128.25" y="-1675.62" font-family="Helvetica,sans-Serif" font-size="10.00"> Iterator, algorithm::AutoRetrack</text>
<text xml:space="preserve" text-anchor="middle" x="207.38" y="-1662.88" font-family="Helvetica,sans-Serif" font-size="10.00">Config, Skipper &gt;</text>
</a>
</g>
</g>
<!-- Node0&#45;&gt;Node8 -->
<g id="edge125_Node000000_Node000008" class="edge">
<title>Node0&#45;&gt;Node8</title>
<g id="a_edge125_Node000000_Node000008"><a xlink:title=" ">
<path fill="none" stroke="#63b8ff" d="M38.89,-1091C38.85,-1185.47 43.14,-1557.81 112,-1647.12 114.37,-1650.2 117.03,-1653.03 119.92,-1655.63"/>
<polygon fill="#63b8ff" stroke="#63b8ff" points="42.39,-1091.09 38.92,-1081.08 35.39,-1091.07 42.39,-1091.09"/>
</a>
</g>
</g>
<!-- Node9 -->
<g id="Node000009" class="node">
<title>Node9</title>
<g id="a_Node000009"><a xlink:href="structbertini_1_1parsing_1_1classic_1_1ConfigSettingParser_3_01Iterator_00_01algorithm_1_1MidPathConfig_00_01Skipper_01_4.html" target="_top" xlink:title="Parser for the MidPathConfig settings block of classic Bertini input.">
<polygon fill="white" stroke="#666666" points="300.88,-1637.62 113.88,-1637.62 113.88,-1578.62 300.88,-1578.62 300.88,-1637.62"/>
<text xml:space="preserve" text-anchor="start" x="121.88" y="-1624.12" font-family="Helvetica,sans-Serif" font-size="10.00">bertini::parsing::classic</text>
<text xml:space="preserve" text-anchor="start" x="121.88" y="-1611.38" font-family="Helvetica,sans-Serif" font-size="10.00">::ConfigSettingParser&lt;</text>
<text xml:space="preserve" text-anchor="start" x="121.88" y="-1598.62" font-family="Helvetica,sans-Serif" font-size="10.00"> Iterator, algorithm::MidPathConfig,</text>
<text xml:space="preserve" text-anchor="middle" x="207.38" y="-1585.88" font-family="Helvetica,sans-Serif" font-size="10.00"> Skipper &gt;</text>
</a>
</g>
</g>
<!-- Node0&#45;&gt;Node9 -->
<g id="edge126_Node000000_Node000009" class="edge">
<title>Node0&#45;&gt;Node9</title>
<g id="a_edge126_Node000000_Node000009"><a xlink:title=" ">
<path fill="none" stroke="#63b8ff" d="M39.37,-1091.32C41.26,-1178.18 52.18,-1494.05 112,-1570.12 114.29,-1573.04 116.84,-1575.73 119.6,-1578.22"/>
<polygon fill="#63b8ff" stroke="#63b8ff" points="42.87,-1091.26 39.18,-1081.33 35.88,-1091.39 42.87,-1091.26"/>
</a>
</g>
</g>
<!-- Node10 -->
<g id="Node000010" class="node">
<title>Node10</title>
<g id="a_Node000010"><a xlink:href="structbertini_1_1parsing_1_1classic_1_1ConfigSettingParser_3_01Iterator_00_01algorithm_1_1PostPrbaf9dfb863fbd1342a576a516762f909.html" target="_top" xlink:title="Parser for the PostProcessingConfig settings block of classic Bertini input.">
<polygon fill="white" stroke="#666666" points="301.25,-1560.62 113.5,-1560.62 113.5,-1501.62 301.25,-1501.62 301.25,-1560.62"/>
<text xml:space="preserve" text-anchor="start" x="121.5" y="-1547.12" font-family="Helvetica,sans-Serif" font-size="10.00">bertini::parsing::classic</text>
<text xml:space="preserve" text-anchor="start" x="121.5" y="-1534.38" font-family="Helvetica,sans-Serif" font-size="10.00">::ConfigSettingParser&lt;</text>
<text xml:space="preserve" text-anchor="start" x="121.5" y="-1521.62" font-family="Helvetica,sans-Serif" font-size="10.00"> Iterator, algorithm::PostProcessing</text>
<text xml:space="preserve" text-anchor="middle" x="207.38" y="-1508.88" font-family="Helvetica,sans-Serif" font-size="10.00">Config, Skipper &gt;</text>
</a>
</g>
</g>
<!-- Node0&#45;&gt;Node10 -->
<g id="edge127_Node000000_Node000010" class="edge">
<title>Node0&#45;&gt;Node10</title>
<g id="a_edge127_Node000000_Node000010"><a xlink:title=" ">
<path fill="none" stroke="#63b8ff" d="M40,-1090.83C43.97,-1168.3 60.99,-1429.95 112,-1493.12 114.33,-1496.01 116.91,-1498.68 119.69,-1501.15"/>
<polygon fill="#63b8ff" stroke="#63b8ff" points="43.51,-1091 39.53,-1081.18 36.52,-1091.34 43.51,-1091"/>
</a>
</g>
</g>
<!-- Node11 -->
<g id="Node000011" class="node">
<title>Node11</title>
<g id="a_Node000011"><a xlink:href="structbertini_1_1parsing_1_1classic_1_1ConfigSettingParser_3_01Iterator_00_01algorithm_1_1RandomConfig_00_01Skipper_01_4.html" target="_top" xlink:title="Parser for the RandomConfig settings block of classic Bertini input.">
<polygon fill="white" stroke="#666666" points="301.62,-1483.62 113.12,-1483.62 113.12,-1424.62 301.62,-1424.62 301.62,-1483.62"/>
<text xml:space="preserve" text-anchor="start" x="121.12" y="-1470.12" font-family="Helvetica,sans-Serif" font-size="10.00">bertini::parsing::classic</text>
<text xml:space="preserve" text-anchor="start" x="121.12" y="-1457.38" font-family="Helvetica,sans-Serif" font-size="10.00">::ConfigSettingParser&lt;</text>
<text xml:space="preserve" text-anchor="start" x="121.12" y="-1444.62" font-family="Helvetica,sans-Serif" font-size="10.00"> Iterator, algorithm::RandomConfig,</text>
<text xml:space="preserve" text-anchor="middle" x="207.38" y="-1431.88" font-family="Helvetica,sans-Serif" font-size="10.00"> Skipper &gt;</text>
</a>
</g>
</g>
<!-- Node0&#45;&gt;Node11 -->
<g id="edge128_Node000000_Node000011" class="edge">
<title>Node0&#45;&gt;Node11</title>
<g id="a_edge128_Node000000_Node000011"><a xlink:title=" ">
<path fill="none" stroke="#63b8ff" d="M40.94,-1091.16C47.36,-1159.44 69.92,-1365.93 112,-1416.12 114.5,-1419.1 117.26,-1421.85 120.23,-1424.38"/>
<polygon fill="#63b8ff" stroke="#63b8ff" points="44.43,-1090.91 40.04,-1081.27 37.46,-1091.54 44.43,-1090.91"/>
</a>
</g>
</g>
<!-- Node12 -->
<g id="Node000012" class="node">
<title>Node12</title>
<g id="a_Node000012"><a xlink:href="structbertini_1_1parsing_1_1classic_1_1ConfigSettingParser_3_01Iterator_00_01algorithm_1_1RecordsConfig_00_01Skipper_01_4.html" target="_top" xlink:title="Parser for RecordsConfig: the classic input format has no keyword for it, so this consumes the config...">
<polygon fill="white" stroke="#666666" points="300.88,-1406.62 113.88,-1406.62 113.88,-1347.62 300.88,-1347.62 300.88,-1406.62"/>
<text xml:space="preserve" text-anchor="start" x="121.88" y="-1393.12" font-family="Helvetica,sans-Serif" font-size="10.00">bertini::parsing::classic</text>
<text xml:space="preserve" text-anchor="start" x="121.88" y="-1380.38" font-family="Helvetica,sans-Serif" font-size="10.00">::ConfigSettingParser&lt;</text>
<text xml:space="preserve" text-anchor="start" x="121.88" y="-1367.62" font-family="Helvetica,sans-Serif" font-size="10.00"> Iterator, algorithm::RecordsConfig,</text>
<text xml:space="preserve" text-anchor="middle" x="207.38" y="-1354.88" font-family="Helvetica,sans-Serif" font-size="10.00"> Skipper &gt;</text>
</a>
</g>
</g>
<!-- Node0&#45;&gt;Node12 -->
<g id="edge129_Node000000_Node000012" class="edge">
<title>Node0&#45;&gt;Node12</title>
<g id="a_edge129_Node000000_Node000012"><a xlink:title=" ">
<path fill="none" stroke="#63b8ff" d="M38.69,-1091.39C39.19,-1141.88 47.35,-1266.3 112,-1339.12 114.58,-1342.03 117.41,-1344.72 120.44,-1347.2"/>
<polygon fill="#63b8ff" stroke="#63b8ff" points="42.19,-1091.49 38.7,-1081.49 35.19,-1091.48 42.19,-1091.49"/>
</a>
</g>
</g>
<!-- Node13 -->
<g id="Node000013" class="node">
<title>Node13</title>
<g id="a_Node000013"><a xlink:href="structbertini_1_1parsing_1_1classic_1_1ConfigSettingParser_3_01Iterator_00_01algorithm_1_1RegenerationConfig_00_01Skipper_01_4.html" target="_top" xlink:title="Parser for the RegenerationConfig settings block of classic Bertini input.">
<polygon fill="white" stroke="#666666" points="297.12,-1329.62 117.62,-1329.62 117.62,-1270.62 297.12,-1270.62 297.12,-1329.62"/>
<text xml:space="preserve" text-anchor="start" x="125.62" y="-1316.12" font-family="Helvetica,sans-Serif" font-size="10.00">bertini::parsing::classic</text>
<text xml:space="preserve" text-anchor="start" x="125.62" y="-1303.38" font-family="Helvetica,sans-Serif" font-size="10.00">::ConfigSettingParser&lt;</text>
<text xml:space="preserve" text-anchor="start" x="125.62" y="-1290.62" font-family="Helvetica,sans-Serif" font-size="10.00"> Iterator, algorithm::Regeneration</text>
<text xml:space="preserve" text-anchor="middle" x="207.38" y="-1277.88" font-family="Helvetica,sans-Serif" font-size="10.00">Config, Skipper &gt;</text>
</a>
</g>
</g>
<!-- Node0&#45;&gt;Node13 -->
<g id="edge130_Node000000_Node000013" class="edge">
<title>Node0&#45;&gt;Node13</title>
<g id="a_edge130_Node000000_Node000013"><a xlink:title=" ">
<path fill="none" stroke="#63b8ff" d="M41.56,-1091.31C47.24,-1130.75 64.39,-1213.49 112,-1262.12 114.84,-1265.03 117.94,-1267.72 121.21,-1270.2"/>
<polygon fill="#63b8ff" stroke="#63b8ff" points="45.03,-1090.88 40.27,-1081.41 38.09,-1091.78 45.03,-1090.88"/>
</a>
</g>
</g>
<!-- Node14 -->
<g id="Node000014" class="node">
<title>Node14</title>
<g id="a_Node000014"><a xlink:href="structbertini_1_1parsing_1_1classic_1_1ConfigSettingParser_3_01Iterator_00_01algorithm_1_1SharpeningConfig_00_01Skipper_01_4.html" target="_top" xlink:title="Parser for the SharpeningConfig settings block of classic Bertini input.">
<polygon fill="white" stroke="#666666" points="291.88,-1252.62 122.88,-1252.62 122.88,-1193.62 291.88,-1193.62 291.88,-1252.62"/>
<text xml:space="preserve" text-anchor="start" x="130.88" y="-1239.12" font-family="Helvetica,sans-Serif" font-size="10.00">bertini::parsing::classic</text>
<text xml:space="preserve" text-anchor="start" x="130.88" y="-1226.38" font-family="Helvetica,sans-Serif" font-size="10.00">::ConfigSettingParser&lt;</text>
<text xml:space="preserve" text-anchor="start" x="130.88" y="-1213.62" font-family="Helvetica,sans-Serif" font-size="10.00"> Iterator, algorithm::Sharpening</text>
<text xml:space="preserve" text-anchor="middle" x="207.38" y="-1200.88" font-family="Helvetica,sans-Serif" font-size="10.00">Config, Skipper &gt;</text>
</a>
</g>
</g>
<!-- Node0&#45;&gt;Node14 -->
<g id="edge131_Node000000_Node000014" class="edge">
<title>Node0&#45;&gt;Node14</title>
<g id="a_edge131_Node000000_Node000014"><a xlink:title=" ">
<path fill="none" stroke="#63b8ff" d="M47.5,-1090.44C58.73,-1116.13 80.8,-1159.06 112,-1185.12 115.52,-1188.07 119.31,-1190.81 123.26,-1193.35"/>
<polygon fill="#63b8ff" stroke="#63b8ff" points="50.8,-1089.24 43.7,-1081.38 44.34,-1091.95 50.8,-1089.24"/>
</a>
</g>
</g>
<!-- Node15 -->
<g id="Node000015" class="node">
<title>Node15</title>
<g id="a_Node000015"><a xlink:href="structbertini_1_1parsing_1_1classic_1_1ConfigSettingParser_3_01Iterator_00_01algorithm_1_1TolerancesConfig_00_01Skipper_01_4.html" target="_top" xlink:title="Parser for the TolerancesConfig settings block of classic Bertini input.">
<polygon fill="white" stroke="#666666" points="290.38,-1175.62 124.38,-1175.62 124.38,-1116.62 290.38,-1116.62 290.38,-1175.62"/>
<text xml:space="preserve" text-anchor="start" x="132.38" y="-1162.12" font-family="Helvetica,sans-Serif" font-size="10.00">bertini::parsing::classic</text>
<text xml:space="preserve" text-anchor="start" x="132.38" y="-1149.38" font-family="Helvetica,sans-Serif" font-size="10.00">::ConfigSettingParser&lt;</text>
<text xml:space="preserve" text-anchor="start" x="132.38" y="-1136.62" font-family="Helvetica,sans-Serif" font-size="10.00"> Iterator, algorithm::Tolerances</text>
<text xml:space="preserve" text-anchor="middle" x="207.38" y="-1123.88" font-family="Helvetica,sans-Serif" font-size="10.00">Config, Skipper &gt;</text>
</a>
</g>
</g>
<!-- Node0&#45;&gt;Node15 -->
<g id="edge132_Node000000_Node000015" class="edge">
<title>Node0&#45;&gt;Node15</title>
<g id="a_edge132_Node000000_Node000015"><a xlink:title=" ">
<path fill="none" stroke="#63b8ff" d="M67.9,-1085.49C81.16,-1092.76 97.21,-1101.22 112,-1108.12 117.76,-1110.81 123.77,-1113.5 129.84,-1116.13"/>
<polygon fill="#63b8ff" stroke="#63b8ff" points="69.69,-1082.48 59.25,-1080.7 66.3,-1088.61 69.69,-1082.48"/>
</a>
</g>
</g>
<!-- Node16 -->
<g id="Node000016" class="node">
<title>Node16</title>
<g id="a_Node000016"><a xlink:href="structbertini_1_1parsing_1_1classic_1_1ConfigSettingParser_3_01Iterator_00_01algorithm_1_1ZeroDimConfig_00_01Skipper_01_4.html" target="_top" xlink:title="Parser for the ZeroDimConfig settings block of classic Bertini input.">
<polygon fill="white" stroke="#666666" points="302.75,-1098.62 112,-1098.62 112,-1039.62 302.75,-1039.62 302.75,-1098.62"/>
<text xml:space="preserve" text-anchor="start" x="120" y="-1085.12" font-family="Helvetica,sans-Serif" font-size="10.00">bertini::parsing::classic</text>
<text xml:space="preserve" text-anchor="start" x="120" y="-1072.38" font-family="Helvetica,sans-Serif" font-size="10.00">::ConfigSettingParser&lt;</text>
<text xml:space="preserve" text-anchor="start" x="120" y="-1059.62" font-family="Helvetica,sans-Serif" font-size="10.00"> Iterator, algorithm::ZeroDimConfig,</text>
<text xml:space="preserve" text-anchor="middle" x="207.38" y="-1046.88" font-family="Helvetica,sans-Serif" font-size="10.00"> Skipper &gt;</text>
</a>
</g>
</g>
<!-- Node0&#45;&gt;Node16 -->
<g id="edge133_Node000000_Node000016" class="edge">
<title>Node0&#45;&gt;Node16</title>
<g id="a_edge133_Node000000_Node000016"><a xlink:title=" ">
<path fill="none" stroke="#63b8ff" d="M87.65,-1069.12C95.25,-1069.12 103.31,-1069.12 111.53,-1069.12"/>
<polygon fill="#63b8ff" stroke="#63b8ff" points="87.66,-1065.63 77.66,-1069.13 87.66,-1072.63 87.66,-1065.63"/>
</a>
</g>
</g>
<!-- Node17 -->
<g id="Node000017" class="node">
<title>Node17</title>
<g id="a_Node000017"><a xlink:href="structbertini_1_1parsing_1_1classic_1_1ConfigSettingParser_3_01Iterator_00_01algorithm_1_1classic2693653e6800c173d15d74cc2bdf56b.html" target="_top" xlink:title="Parser for the AlgoChoice settings block of classic Bertini input.">
<polygon fill="white" stroke="#666666" points="281,-1021.62 133.75,-1021.62 133.75,-962.62 281,-962.62 281,-1021.62"/>
<text xml:space="preserve" text-anchor="start" x="141.75" y="-1008.12" font-family="Helvetica,sans-Serif" font-size="10.00">bertini::parsing::classic</text>
<text xml:space="preserve" text-anchor="start" x="141.75" y="-995.38" font-family="Helvetica,sans-Serif" font-size="10.00">::ConfigSettingParser&lt;</text>
<text xml:space="preserve" text-anchor="start" x="141.75" y="-982.62" font-family="Helvetica,sans-Serif" font-size="10.00"> Iterator, algorithm::classic</text>
<text xml:space="preserve" text-anchor="middle" x="207.38" y="-969.88" font-family="Helvetica,sans-Serif" font-size="10.00">::AlgoChoice, Skipper &gt;</text>
</a>
</g>
</g>
<!-- Node0&#45;&gt;Node17 -->
<g id="edge134_Node000000_Node000017" class="edge">
<title>Node0&#45;&gt;Node17</title>
<g id="a_edge134_Node000000_Node000017"><a xlink:title=" ">
<path fill="none" stroke="#63b8ff" d="M68.52,-1053C81.69,-1046.01 97.49,-1037.88 112,-1031.12 118.91,-1027.91 126.16,-1024.67 133.45,-1021.51"/>
<polygon fill="#63b8ff" stroke="#63b8ff" points="67.09,-1049.8 59.93,-1057.61 70.4,-1055.97 67.09,-1049.8"/>
</a>
</g>
</g>
<!-- Node18 -->
<g id="Node000018" class="node">
<title>Node18</title>
<g id="a_Node000018"><a xlink:href="structbertini_1_1parsing_1_1classic_1_1ConfigSettingParser_3_01Iterator_00_01algorithm_1_1classi0903e7c1496543c8d2e4a41433a2628b.html" target="_top" xlink:title="Parser for the EndgameChoiceConfig settings block of classic Bertini input.">
<polygon fill="white" stroke="#666666" points="300.12,-944.62 114.62,-944.62 114.62,-885.62 300.12,-885.62 300.12,-944.62"/>
<text xml:space="preserve" text-anchor="start" x="122.62" y="-931.12" font-family="Helvetica,sans-Serif" font-size="10.00">bertini::parsing::classic</text>
<text xml:space="preserve" text-anchor="start" x="122.62" y="-918.38" font-family="Helvetica,sans-Serif" font-size="10.00">::ConfigSettingParser&lt;</text>
<text xml:space="preserve" text-anchor="start" x="122.62" y="-905.62" font-family="Helvetica,sans-Serif" font-size="10.00"> Iterator, algorithm::classic</text>
<text xml:space="preserve" text-anchor="middle" x="207.38" y="-892.88" font-family="Helvetica,sans-Serif" font-size="10.00">::EndgameChoiceConfig, Skipper &gt;</text>
</a>
</g>
</g>
<!-- Node0&#45;&gt;Node18 -->
<g id="edge135_Node000000_Node000018" class="edge">
<title>Node0&#45;&gt;Node18</title>
<g id="a_edge135_Node000000_Node000018"><a xlink:title=" ">
<path fill="none" stroke="#63b8ff" d="M47.59,-1048.04C58.91,-1022.62 81.06,-980.11 112,-954.12 115.94,-950.82 120.19,-947.76 124.65,-944.94"/>
<polygon fill="#63b8ff" stroke="#63b8ff" points="44.47,-1046.43 43.76,-1057 50.91,-1049.18 44.47,-1046.43"/>
</a>
</g>
</g>
<!-- Node19 -->
<g id="Node000019" class="node">
<title>Node19</title>
<g id="a_Node000019"><a xlink:href="structbertini_1_1parsing_1_1classic_1_1ConfigSettingParser_3_01Iterator_00_01bertini_1_1endgame_d7b121f0a39c5a4f1058e812e582cadc.html" target="_top" xlink:title="Parser for the CauchyConfig settings block of classic Bertini input.">
<polygon fill="white" stroke="#666666" points="279.5,-867.62 135.25,-867.62 135.25,-808.62 279.5,-808.62 279.5,-867.62"/>
<text xml:space="preserve" text-anchor="start" x="143.25" y="-854.12" font-family="Helvetica,sans-Serif" font-size="10.00">bertini::parsing::classic</text>
<text xml:space="preserve" text-anchor="start" x="143.25" y="-841.38" font-family="Helvetica,sans-Serif" font-size="10.00">::ConfigSettingParser&lt;</text>
<text xml:space="preserve" text-anchor="start" x="143.25" y="-828.62" font-family="Helvetica,sans-Serif" font-size="10.00"> Iterator, bertini::endgame</text>
<text xml:space="preserve" text-anchor="middle" x="207.38" y="-815.88" font-family="Helvetica,sans-Serif" font-size="10.00">::CauchyConfig, Skipper &gt;</text>
</a>
</g>
</g>
<!-- Node0&#45;&gt;Node19 -->
<g id="edge136_Node000000_Node000019" class="edge">
<title>Node0&#45;&gt;Node19</title>
<g id="a_edge136_Node000000_Node000019"><a xlink:title=" ">
<path fill="none" stroke="#63b8ff" d="M41.64,-1047.1C47.44,-1007.93 64.78,-925.71 112,-877.12 118.55,-870.39 126.43,-864.77 134.81,-860.09"/>
<polygon fill="#63b8ff" stroke="#63b8ff" points="38.18,-1046.54 40.32,-1056.91 45.12,-1047.47 38.18,-1046.54"/>
</a>
</g>
</g>
<!-- Node20 -->
<g id="Node000020" class="node">
<title>Node20</title>
<g id="a_Node000020"><a xlink:href="structbertini_1_1parsing_1_1classic_1_1ConfigSettingParser_3_01Iterator_00_01bertini_1_1endgame_885e7f4b233b1d1d1fdfe50c507512c8.html" target="_top" xlink:title="Parser for the EndgameConfig settings block of classic Bertini input.">
<polygon fill="white" stroke="#666666" points="283.62,-790.62 131.12,-790.62 131.12,-731.62 283.62,-731.62 283.62,-790.62"/>
<text xml:space="preserve" text-anchor="start" x="139.12" y="-777.12" font-family="Helvetica,sans-Serif" font-size="10.00">bertini::parsing::classic</text>
<text xml:space="preserve" text-anchor="start" x="139.12" y="-764.38" font-family="Helvetica,sans-Serif" font-size="10.00">::ConfigSettingParser&lt;</text>
<text xml:space="preserve" text-anchor="start" x="139.12" y="-751.62" font-family="Helvetica,sans-Serif" font-size="10.00"> Iterator, bertini::endgame</text>
<text xml:space="preserve" text-anchor="middle" x="207.38" y="-738.88" font-family="Helvetica,sans-Serif" font-size="10.00">::EndgameConfig, Skipper &gt;</text>
</a>
</g>
</g>
<!-- Node0&#45;&gt;Node20 -->
<g id="edge137_Node000000_Node000020" class="edge">
<title>Node0&#45;&gt;Node20</title>
<g id="a_edge137_Node000000_Node000020"><a xlink:title=" ">
<path fill="none" stroke="#63b8ff" d="M38.76,-1046.98C39.42,-996.76 47.87,-872.96 112,-800.12 117.39,-794 123.89,-788.82 130.93,-784.44"/>
<polygon fill="#63b8ff" stroke="#63b8ff" points="35.26,-1046.82 38.74,-1056.82 42.26,-1046.83 35.26,-1046.82"/>
</a>
</g>
</g>
<!-- Node21 -->
<g id="Node000021" class="node">
<title>Node21</title>
<g id="a_Node000021"><a xlink:href="structbertini_1_1parsing_1_1classic_1_1ConfigSettingParser_3_01Iterator_00_01bertini_1_1endgame_96ed976c14e30e536beeb70eb971d77f.html" target="_top" xlink:title="Parser for the PowerSeriesConfig settings block of classic Bertini input.">
<polygon fill="white" stroke="#666666" points="290.75,-713.62 124,-713.62 124,-654.62 290.75,-654.62 290.75,-713.62"/>
<text xml:space="preserve" text-anchor="start" x="132" y="-700.12" font-family="Helvetica,sans-Serif" font-size="10.00">bertini::parsing::classic</text>
<text xml:space="preserve" text-anchor="start" x="132" y="-687.38" font-family="Helvetica,sans-Serif" font-size="10.00">::ConfigSettingParser&lt;</text>
<text xml:space="preserve" text-anchor="start" x="132" y="-674.62" font-family="Helvetica,sans-Serif" font-size="10.00"> Iterator, bertini::endgame</text>
<text xml:space="preserve" text-anchor="middle" x="207.38" y="-661.88" font-family="Helvetica,sans-Serif" font-size="10.00">::PowerSeriesConfig, Skipper &gt;</text>
</a>
</g>
</g>
<!-- Node0&#45;&gt;Node21 -->
<g id="edge138_Node000000_Node000021" class="edge">
<title>Node0&#45;&gt;Node21</title>
<g id="a_edge138_Node000000_Node000021"><a xlink:title=" ">
<path fill="none" stroke="#63b8ff" d="M40.97,-1047.17C47.47,-979.13 70.25,-773.36 112,-723.12 115.4,-719.03 119.3,-715.37 123.53,-712.08"/>
<polygon fill="#63b8ff" stroke="#63b8ff" points="37.49,-1046.74 40.05,-1057.02 44.46,-1047.39 37.49,-1046.74"/>
</a>
</g>
</g>
<!-- Node22 -->
<g id="Node000022" class="node">
<title>Node22</title>
<g id="a_Node000022"><a xlink:href="structbertini_1_1parsing_1_1classic_1_1ConfigSettingParser_3_01Iterator_00_01bertini_1_1endgame_6756d15d0527cdfc34b066906cd57cbe.html" target="_top" xlink:title="Parser for the SecurityConfig settings block of classic Bertini input.">
<polygon fill="white" stroke="#666666" points="280.62,-636.62 134.12,-636.62 134.12,-577.62 280.62,-577.62 280.62,-636.62"/>
<text xml:space="preserve" text-anchor="start" x="142.12" y="-623.12" font-family="Helvetica,sans-Serif" font-size="10.00">bertini::parsing::classic</text>
<text xml:space="preserve" text-anchor="start" x="142.12" y="-610.38" font-family="Helvetica,sans-Serif" font-size="10.00">::ConfigSettingParser&lt;</text>
<text xml:space="preserve" text-anchor="start" x="142.12" y="-597.62" font-family="Helvetica,sans-Serif" font-size="10.00"> Iterator, bertini::endgame</text>
<text xml:space="preserve" text-anchor="middle" x="207.38" y="-584.88" font-family="Helvetica,sans-Serif" font-size="10.00">::SecurityConfig, Skipper &gt;</text>
</a>
</g>
</g>
<!-- Node0&#45;&gt;Node22 -->
<g id="edge139_Node000000_Node000022" class="edge">
<title>Node0&#45;&gt;Node22</title>
<g id="a_edge139_Node000000_Node000022"><a xlink:title=" ">
<path fill="none" stroke="#63b8ff" d="M40.03,-1047.49C44.09,-970.25 61.39,-709.37 112,-646.12 117.98,-638.65 125.64,-632.59 134,-627.69"/>
<polygon fill="#63b8ff" stroke="#63b8ff" points="36.55,-1046.94 39.54,-1057.1 43.54,-1047.29 36.55,-1046.94"/>
</a>
</g>
</g>
<!-- Node23 -->
<g id="Node000023" class="node">
<title>Node23</title>
<g id="a_Node000023"><a xlink:href="structbertini_1_1parsing_1_1classic_1_1ConfigSettingParser_3_01Iterator_00_01bertini_1_1endgame_8cbe02d1aba37093c9fcff80a668552a.html" target="_top" xlink:title="Parser for the TrackBackConfig settings block of classic Bertini input.">
<polygon fill="white" stroke="#666666" points="285.5,-559.62 129.25,-559.62 129.25,-500.62 285.5,-500.62 285.5,-559.62"/>
<text xml:space="preserve" text-anchor="start" x="137.25" y="-546.12" font-family="Helvetica,sans-Serif" font-size="10.00">bertini::parsing::classic</text>
<text xml:space="preserve" text-anchor="start" x="137.25" y="-533.38" font-family="Helvetica,sans-Serif" font-size="10.00">::ConfigSettingParser&lt;</text>
<text xml:space="preserve" text-anchor="start" x="137.25" y="-520.62" font-family="Helvetica,sans-Serif" font-size="10.00"> Iterator, bertini::endgame</text>
<text xml:space="preserve" text-anchor="middle" x="207.38" y="-507.88" font-family="Helvetica,sans-Serif" font-size="10.00">::TrackBackConfig, Skipper &gt;</text>
</a>
</g>
</g>
<!-- Node0&#45;&gt;Node23 -->
<g id="edge140_Node000000_Node000023" class="edge">
<title>Node0&#45;&gt;Node23</title>
<g id="a_edge140_Node000000_Node000023"><a xlink:title=" ">
<path fill="none" stroke="#63b8ff" d="M39.4,-1046.99C41.39,-960.36 52.63,-645.31 112,-569.12 116.69,-563.11 122.46,-558.02 128.82,-553.71"/>
<polygon fill="#63b8ff" stroke="#63b8ff" points="35.9,-1046.88 39.19,-1056.95 42.9,-1047.03 35.9,-1046.88"/>
</a>
</g>
</g>
<!-- Node24 -->
<g id="Node000024" class="node">
<title>Node24</title>
<g id="a_Node000024"><a xlink:href="structbertini_1_1parsing_1_1classic_1_1CommentStripper.html" target="_top" xlink:title="Qi Parser object for removing comments from a line of text and then returns the uncommented line.">
<polygon fill="white" stroke="#666666" points="286.62,-482.25 128.12,-482.25 128.12,-436 286.62,-436 286.62,-482.25"/>
<text xml:space="preserve" text-anchor="start" x="136.12" y="-468.75" font-family="Helvetica,sans-Serif" font-size="10.00">bertini::parsing::classic</text>
<text xml:space="preserve" text-anchor="start" x="136.12" y="-456" font-family="Helvetica,sans-Serif" font-size="10.00">::CommentStripper&lt; Iterator,</text>
<text xml:space="preserve" text-anchor="middle" x="207.38" y="-443.25" font-family="Helvetica,sans-Serif" font-size="10.00"> Skipper &gt;</text>
</a>
</g>
</g>
<!-- Node0&#45;&gt;Node24 -->
<g id="edge141_Node000000_Node000024" class="edge">
<title>Node0&#45;&gt;Node24</title>
<g id="a_edge141_Node000000_Node000024"><a xlink:title=" ">
<path fill="none" stroke="#63b8ff" d="M38.8,-1047.21C38.35,-952.56 41.19,-579.66 112,-492.12 116.48,-486.59 121.94,-481.98 127.96,-478.15"/>
<polygon fill="#63b8ff" stroke="#63b8ff" points="35.3,-1047.17 38.86,-1057.15 42.3,-1047.12 35.3,-1047.17"/>
</a>
</g>
</g>
<!-- Node25 -->
<g id="Node000025" class="node">
<title>Node25</title>
<g id="a_Node000025"><a xlink:href="structbertini_1_1parsing_1_1classic_1_1ConfigSettingParser.html" target="_top" xlink:title="Qi Parser object for parsing config settings This ensures we can provide backwards compatibility with...">
<polygon fill="white" stroke="#666666" points="287,-418.25 127.75,-418.25 127.75,-372 287,-372 287,-418.25"/>
<text xml:space="preserve" text-anchor="start" x="135.75" y="-404.75" font-family="Helvetica,sans-Serif" font-size="10.00">bertini::parsing::classic</text>
<text xml:space="preserve" text-anchor="start" x="135.75" y="-392" font-family="Helvetica,sans-Serif" font-size="10.00">::ConfigSettingParser&lt;</text>
<text xml:space="preserve" text-anchor="middle" x="207.38" y="-379.25" font-family="Helvetica,sans-Serif" font-size="10.00"> Iterator, Structure, Skipper &gt;</text>
</a>
</g>
</g>
<!-- Node0&#45;&gt;Node25 -->
<g id="edge142_Node000000_Node000025" class="edge">
<title>Node0&#45;&gt;Node25</title>
<g id="a_edge142_Node000000_Node000025"><a xlink:title=" ">
<path fill="none" stroke="#63b8ff" d="M40.11,-1047.2C45.71,-940.27 72.17,-476.53 112,-427.12 116.34,-421.74 121.63,-417.25 127.47,-413.52"/>
<polygon fill="#63b8ff" stroke="#63b8ff" points="36.63,-1046.74 39.61,-1056.91 43.62,-1047.11 36.63,-1046.74"/>
</a>
</g>
</g>
<!-- Node26 -->
<g id="Node000026" class="node">
<title>Node26</title>
<g id="a_Node000026"><a xlink:href="structbertini_1_1parsing_1_1classic_1_1FunctionParser.html" target="_top" xlink:title="A Qi grammar parser for parsing text into function trees.">
<polygon fill="white" stroke="#666666" points="283.25,-353.88 131.5,-353.88 131.5,-320.38 283.25,-320.38 283.25,-353.88"/>
<text xml:space="preserve" text-anchor="start" x="139.5" y="-340.38" font-family="Helvetica,sans-Serif" font-size="10.00">bertini::parsing::classic</text>
<text xml:space="preserve" text-anchor="middle" x="207.38" y="-327.62" font-family="Helvetica,sans-Serif" font-size="10.00">::FunctionParser&lt; Iterator &gt;</text>
</a>
</g>
</g>
<!-- Node0&#45;&gt;Node26 -->
<g id="edge143_Node000000_Node000026" class="edge">
<title>Node0&#45;&gt;Node26</title>
<g id="a_edge143_Node000000_Node000026"><a xlink:title=" ">
<path fill="none" stroke="#63b8ff" d="M39.82,-1047.15C44.22,-933.6 66.67,-416.67 112,-363.12 117.27,-356.9 123.88,-352.09 131.15,-348.39"/>
<polygon fill="#63b8ff" stroke="#63b8ff" points="36.33,-1046.79 39.44,-1056.92 43.32,-1047.06 36.33,-1046.79"/>
</a>
</g>
</g>
<!-- Node27 -->
<g id="Node000027" class="node">
<title>Node27</title>
<g id="a_Node000027"><a xlink:href="structbertini_1_1parsing_1_1classic_1_1MpfrComplexParser.html" target="_top" xlink:title="A Qi grammar parsing a complex multiprecision number (real then imaginary part).">
<polygon fill="white" stroke="#666666" points="291.5,-302.25 123.25,-302.25 123.25,-256 291.5,-256 291.5,-302.25"/>
<text xml:space="preserve" text-anchor="start" x="131.25" y="-288.75" font-family="Helvetica,sans-Serif" font-size="10.00">bertini::parsing::classic</text>
<text xml:space="preserve" text-anchor="start" x="131.25" y="-276" font-family="Helvetica,sans-Serif" font-size="10.00">::MpfrComplexParser&lt; Iterator,</text>
<text xml:space="preserve" text-anchor="middle" x="207.38" y="-263.25" font-family="Helvetica,sans-Serif" font-size="10.00"> Skipper &gt;</text>
</a>
</g>
</g>
<!-- Node0&#45;&gt;Node27 -->
<g id="edge144_Node000000_Node000027" class="edge">
<title>Node0&#45;&gt;Node27</title>
<g id="a_edge144_Node000000_Node000027"><a xlink:title=" ">
<path fill="none" stroke="#63b8ff" d="M39.71,-1047.09C43.73,-928.61 65.07,-370.37 112,-311.12 115.22,-307.06 118.99,-303.5 123.12,-300.4"/>
<polygon fill="#63b8ff" stroke="#63b8ff" points="36.22,-1046.89 39.38,-1057 43.21,-1047.12 36.22,-1046.89"/>
</a>
</g>
</g>
<!-- Node28 -->
<g id="Node000028" class="node">
<title>Node28</title>
<g id="a_Node000028"><a xlink:href="structbertini_1_1parsing_1_1classic_1_1MpfrFloatParser.html" target="_top" xlink:title="A Qi grammar parsing a real multiprecision number, at a precision matching the input&#39;s digits.">
<polygon fill="white" stroke="#666666" points="282.12,-238.25 132.62,-238.25 132.62,-192 282.12,-192 282.12,-238.25"/>
<text xml:space="preserve" text-anchor="start" x="140.62" y="-224.75" font-family="Helvetica,sans-Serif" font-size="10.00">bertini::parsing::classic</text>
<text xml:space="preserve" text-anchor="start" x="140.62" y="-212" font-family="Helvetica,sans-Serif" font-size="10.00">::MpfrFloatParser&lt; Iterator,</text>
<text xml:space="preserve" text-anchor="middle" x="207.38" y="-199.25" font-family="Helvetica,sans-Serif" font-size="10.00"> Skipper &gt;</text>
</a>
</g>
</g>
<!-- Node0&#45;&gt;Node28 -->
<g id="edge145_Node000000_Node000028" class="edge">
<title>Node0&#45;&gt;Node28</title>
<g id="a_edge145_Node000000_Node000028"><a xlink:title=" ">
<path fill="none" stroke="#63b8ff" d="M39.54,-1047.2C42.75,-923.07 61.12,-311.85 112,-247.12 117.45,-240.19 124.48,-234.75 132.23,-230.48"/>
<polygon fill="#63b8ff" stroke="#63b8ff" points="36.04,-1046.9 39.29,-1056.99 43.04,-1047.08 36.04,-1046.9"/>
</a>
</g>
</g>
<!-- Node29 -->
<g id="Node000029" class="node">
<title>Node29</title>
<g id="a_Node000029"><a xlink:href="structbertini_1_1parsing_1_1classic_1_1SplitInputFileParser.html" target="_top" xlink:title="Qi Parser object for parsing text into the SplitInputfile class.">
<polygon fill="white" stroke="#666666" points="271.62,-174.25 143.12,-174.25 143.12,-128 271.62,-128 271.62,-174.25"/>
<text xml:space="preserve" text-anchor="start" x="151.12" y="-160.75" font-family="Helvetica,sans-Serif" font-size="10.00">bertini::parsing::classic</text>
<text xml:space="preserve" text-anchor="start" x="151.12" y="-148" font-family="Helvetica,sans-Serif" font-size="10.00">::SplitInputFileParser</text>
<text xml:space="preserve" text-anchor="middle" x="207.38" y="-135.25" font-family="Helvetica,sans-Serif" font-size="10.00">&lt; Iterator, Skipper &gt;</text>
</a>
</g>
</g>
<!-- Node0&#45;&gt;Node29 -->
<g id="edge146_Node000000_Node000029" class="edge">
<title>Node0&#45;&gt;Node29</title>
<g id="a_edge146_Node000000_Node000029"><a xlink:title=" ">
<path fill="none" stroke="#63b8ff" d="M39.39,-1047.12C41.87,-917.18 57.18,-253.31 112,-183.12 119.88,-173.04 131.09,-166.1 143.05,-161.35"/>
<polygon fill="#63b8ff" stroke="#63b8ff" points="35.9,-1046.71 39.21,-1056.77 42.89,-1046.84 35.9,-1046.71"/>
</a>
</g>
</g>
<!-- Node30 -->
<g id="Node000030" class="node">
<title>Node30</title>
<g id="a_Node000030"><a xlink:href="structbertini_1_1parsing_1_1classic_1_1SystemParser.html" target="_top" xlink:title="Qi Parser object for parsing text into the System class.">
<polygon fill="white" stroke="#666666" points="276.88,-110.25 137.88,-110.25 137.88,-64 276.88,-64 276.88,-110.25"/>
<text xml:space="preserve" text-anchor="start" x="145.88" y="-96.75" font-family="Helvetica,sans-Serif" font-size="10.00">bertini::parsing::classic</text>
<text xml:space="preserve" text-anchor="start" x="145.88" y="-84" font-family="Helvetica,sans-Serif" font-size="10.00">::SystemParser&lt; Iterator,</text>
<text xml:space="preserve" text-anchor="middle" x="207.38" y="-71.25" font-family="Helvetica,sans-Serif" font-size="10.00"> Skipper &gt;</text>
</a>
</g>
</g>
<!-- Node0&#45;&gt;Node30 -->
<g id="edge147_Node000000_Node000030" class="edge">
<title>Node0&#45;&gt;Node30</title>
<g id="a_edge147_Node000000_Node000030"><a xlink:title=" ">
<path fill="none" stroke="#63b8ff" d="M39.26,-1047.25C41.04,-912.15 53.21,-194.83 112,-119.12 118.69,-110.52 127.8,-104.21 137.73,-99.59"/>
<polygon fill="#63b8ff" stroke="#63b8ff" points="35.76,-1046.9 39.14,-1056.95 42.76,-1046.99 35.76,-1046.9"/>
</a>
</g>
</g>
<!-- Node31 -->
<g id="Node000031" class="node">
<title>Node31</title>
<g id="a_Node000031"><a xlink:href="structbertini_1_1settings_1_1parsing_1_1ConfigToIni.html" target="_top" xlink:title="Qi Parser object for converting Bertini configuration settings into ini format so they can be read by...">
<polygon fill="white" stroke="#666666" points="266,-46.25 148.75,-46.25 148.75,0 266,0 266,-46.25"/>
<text xml:space="preserve" text-anchor="start" x="156.75" y="-32.75" font-family="Helvetica,sans-Serif" font-size="10.00">bertini::settings::</text>
<text xml:space="preserve" text-anchor="start" x="156.75" y="-20" font-family="Helvetica,sans-Serif" font-size="10.00">parsing::ConfigToIni</text>
<text xml:space="preserve" text-anchor="middle" x="207.38" y="-7.25" font-family="Helvetica,sans-Serif" font-size="10.00">&lt; Iterator, Skipper &gt;</text>
</a>
</g>
</g>
<!-- Node0&#45;&gt;Node31 -->
<g id="edge148_Node000000_Node000031" class="edge">
<title>Node0&#45;&gt;Node31</title>
<g id="a_edge148_Node000000_Node000031"><a xlink:title=" ">
<path fill="none" stroke="#63b8ff" d="M39.15,-1047.1C40.27,-906.36 49.28,-136.3 112,-55.12 120.99,-43.49 134.42,-36.05 148.34,-31.31"/>
<polygon fill="#63b8ff" stroke="#63b8ff" points="35.65,-1046.86 39.07,-1056.88 42.65,-1046.91 35.65,-1046.86"/>
</a>
</g>
</g>
</g>
</svg>
