<?xml version="1.0" encoding="UTF-8" standalone="no"?>
<!DOCTYPE svg PUBLIC "-//W3C//DTD SVG 1.1//EN"
 "http://www.w3.org/Graphics/SVG/1.1/DTD/svg11.dtd">
<!-- Generated by graphviz version 2.43.0 (0)
 -->
<!-- Title: bertini::node::Node Pages: 1 -->
<svg width="264pt" height="93pt"
 viewBox="0.00 0.00 263.50 93.00" xmlns="http://www.w3.org/2000/svg" xmlns:xlink="http://www.w3.org/1999/xlink">
<g id="graph0" class="graph" transform="scale(1 1) rotate(0) translate(4 89)">
<title>bertini::node::Node</title>
<!-- Node1 -->
<g id="Node000001" class="node">
<title>Node1</title>
<g id="a_Node000001"><a xlink:title="An interface for all nodes in a function tree, and for a function object as well.">
<polygon fill="#999999" stroke="#666666" points="183.5,-19 73.5,-19 73.5,0 183.5,0 183.5,-19"/>
<text text-anchor="middle" x="128.5" y="-7" font-family="Helvetica,sans-Serif" font-size="10.00">bertini::node::Node</text>
</a>
</g>
</g>
<!-- Node2 -->
<g id="Node000002" class="node">
<title>Node2</title>
<g id="a_Node000002"><a xlink:href="classbertini_1_1VisitableBase.html" target="_top" xlink:title="The base class for visitable types.">
<polygon fill="white" stroke="#666666" points="121,-85 0,-85 0,-55 121,-55 121,-85"/>
<text text-anchor="start" x="8" y="-73" font-family="Helvetica,sans-Serif" font-size="10.00">bertini::VisitableBase</text>
<text text-anchor="middle" x="60.5" y="-62" font-family="Helvetica,sans-Serif" font-size="10.00">&lt; RetT, CatchAll &gt;</text>
</a>
</g>
</g>
<!-- Node2&#45;&gt;Node1 -->
<g id="edge1_Node000001_Node000002" class="edge">
<title>Node2&#45;&gt;Node1</title>
<g id="a_edge1_Node000001_Node000002"><a xlink:title=" ">
<path fill="none" stroke="#63b8ff" d="M84.63,-48.24C96.19,-38.29 109.43,-26.91 118.31,-19.27"/>
<polygon fill="#63b8ff" stroke="#63b8ff" points="82.26,-45.66 76.96,-54.84 86.82,-50.97 82.26,-45.66"/>
</a>
</g>
</g>
<!-- Node3 -->
<g id="Node000003" class="node">
<title>Node3</title>
<g id="a_Node000003"><a xlink:title=" ">
<polygon fill="white" stroke="#666666" points="255.5,-85 139.5,-85 139.5,-55 255.5,-55 255.5,-85"/>
<text text-anchor="start" x="147.5" y="-73" font-family="Helvetica,sans-Serif" font-size="10.00">std::enable_shared</text>
<text text-anchor="middle" x="197.5" y="-62" font-family="Helvetica,sans-Serif" font-size="10.00">_from_this&lt; Node &gt;</text>
</a>
</g>
</g>
<!-- Node3&#45;&gt;Node1 -->
<g id="edge2_Node000001_Node000003" class="edge">
<title>Node3&#45;&gt;Node1</title>
<g id="a_edge2_Node000001_Node000003"><a xlink:title=" ">
<path fill="none" stroke="#63b8ff" d="M173.02,-48.24C161.28,-38.29 147.85,-26.91 138.84,-19.27"/>
<polygon fill="#63b8ff" stroke="#63b8ff" points="170.91,-51.04 180.8,-54.84 175.43,-45.7 170.91,-51.04"/>
</a>
</g>
</g>
</g>
</svg>
